<svg id="icon4" xmlns="http://www.w3.org/2000/svg" xmlns:xlink="http://www.w3.org/1999/xlink" width="24" height="24" viewBox="0 0 24 24">
  <defs>
    <clipPath id="clip-path">
      <rect id="Rectangle_383" data-name="Rectangle 383" width="24" height="24" fill="none" stroke="#fff" stroke-width="1"/>
    </clipPath>
  </defs>
  <g id="Group_2866" data-name="Group 2866" clip-path="url(#clip-path)">
    <rect id="Rectangle_382" data-name="Rectangle 382" width="23" height="8" rx="2" transform="translate(0.5 15.5)" fill="none" stroke="#fff" stroke-linecap="round" stroke-miterlimit="10" stroke-width="1"/>
    <line id="Line_98" data-name="Line 98" y2="7" transform="translate(3.5 8.5)" fill="none" stroke="#fff" stroke-linecap="round" stroke-miterlimit="10" stroke-width="1"/>
    <path id="Path_3839" data-name="Path 3839" d="M3.5,5.5a3,3,0,0,1,3,3" fill="none" stroke="#fff" stroke-linecap="round" stroke-miterlimit="10" stroke-width="1"/>
    <path id="Path_3840" data-name="Path 3840" d="M3.5,3A5.5,5.5,0,0,1,9,8.5" fill="none" stroke="#fff" stroke-linecap="round" stroke-miterlimit="10" stroke-width="1"/>
    <path id="Path_3841" data-name="Path 3841" d="M3.5.5a8,8,0,0,1,8,8" fill="none" stroke="#fff" stroke-linecap="round" stroke-miterlimit="10" stroke-width="1"/>
    <path id="Path_3842" data-name="Path 3842" d="M8,20a1,1,0,1,1-1-1,1,1,0,0,1,1,1" fill="none" stroke="#fff" stroke-width="1"/>
    <path id="Path_3843" data-name="Path 3843" d="M13,20a1,1,0,1,1-1-1,1,1,0,0,1,1,1" fill="none" stroke="#fff" stroke-width="1"/>
    <path id="Path_3844" data-name="Path 3844" d="M18,20a1,1,0,1,1-1-1,1,1,0,0,1,1,1" fill="none" stroke="#fff" stroke-width="1"/>
  </g>
</svg>
