<svg id="icon5" xmlns="http://www.w3.org/2000/svg" xmlns:xlink="http://www.w3.org/1999/xlink" width="19" height="24" viewBox="0 0 19 24">
  <defs>
    <clipPath id="clip-path">
      <rect id="Rectangle_399" data-name="Rectangle 399" width="19" height="24" fill="none" stroke="#fff" stroke-width="1"/>
    </clipPath>
  </defs>
  <g id="Group_2900" data-name="Group 2900" clip-path="url(#clip-path)">
    <path id="Path_3879" data-name="Path 3879" d="M17.713,15.4c-2.308-.66-2.759-4.407-3.213-9.9-.248-2.99-2-5-5-5s-4.753,2.01-5,5c-.454,5.489-.906,9.236-3.213,9.9A1.03,1.03,0,0,0,.5,16.37V18.5a1,1,0,0,0,1,1h16a1,1,0,0,0,1-1V16.37A1.031,1.031,0,0,0,17.713,15.4Z" fill="none" stroke="#fff" stroke-linecap="round" stroke-linejoin="round" stroke-width="1"/>
    <path id="Path_3880" data-name="Path 3880" d="M11.5,21.5a2,2,0,0,1-4,0" fill="none" stroke="#fff" stroke-linecap="round" stroke-linejoin="round" stroke-width="1"/>
  </g>
</svg>
