<svg xmlns="http://www.w3.org/2000/svg" xmlns:xlink="http://www.w3.org/1999/xlink" width="22.244" height="23.976" viewBox="0 0 22.244 23.976">
  <defs>
    <clipPath id="clip-path">
      <rect id="Rectangle_396" data-name="Rectangle 396" width="22.244" height="23.976" fill="none" stroke="#fff" stroke-width="1"/>
    </clipPath>
  </defs>
  <g id="icon2" clip-path="url(#clip-path)">
    <path id="Path_3875" data-name="Path 3875" d="M21.336,14.6a1,1,0,0,1,0,1.611l-9.622,7.07a1,1,0,0,1-1.184,0L.908,16.212a1,1,0,0,1,0-1.611" transform="translate(0 0)" fill="none" stroke="#fff" stroke-linecap="round" stroke-linejoin="round" stroke-width="1"/>
    <path id="Path_3876" data-name="Path 3876" d="M.908,11.183a1,1,0,0,0,0,1.611l.944.7,8.678,6.375a1,1,0,0,0,1.184,0l8.678-6.375.945-.7a1,1,0,0,0,0-1.611" transform="translate(0 0)" fill="none" stroke="#fff" stroke-linecap="round" stroke-linejoin="round" stroke-width="1"/>
    <path id="Path_3877" data-name="Path 3877" d="M21.336,7.763,11.714.694a1,1,0,0,0-1.184,0L.909,7.763a1,1,0,0,0,0,1.612l.944.694,2.04,1.5,6.639,4.875a1,1,0,0,0,1.183,0l6.637-4.875,2.041-1.5.944-.694A1,1,0,0,0,21.336,7.763Z" transform="translate(0 0)" fill="none" stroke="#fff" stroke-linecap="round" stroke-linejoin="round" stroke-width="1"/>
  </g>
</svg>
