<svg xmlns="http://www.w3.org/2000/svg" xmlns:xlink="http://www.w3.org/1999/xlink" width="24.031" height="23.813" viewBox="0 0 24.031 23.813">
  <defs>
    <clipPath id="clip-path">
      <rect id="Rectangle_432" data-name="Rectangle 432" width="24.031" height="23.813" transform="translate(0 0)" fill="none" stroke="#fff" stroke-width="1"/>
    </clipPath>
  </defs>
  <g id="icon6" transform="translate(0 0)" clip-path="url(#clip-path)">
    <path id="Path_3905" data-name="Path 3905" d="M20.113,1.09l-4,4a2.015,2.015,0,0,0,0,2.829,2.007,2.007,0,0,0,2.828,0l4-4A6,6,0,1,1,20.113,1.09Z" fill="none" stroke="#fff" stroke-linecap="round" stroke-linejoin="round" stroke-width="1"/>
    <path id="Path_3906" data-name="Path 3906" d="M15.178,12.008,4.518,22.668a2,2,0,1,1-2.83-2.83L12.228,9.3" fill="none" stroke="#fff" stroke-miterlimit="10" stroke-width="1"/>
    <path id="Path_3907" data-name="Path 3907" d="M14.408,12.778l7.12,7.12a2,2,0,0,1-2.82,2.83l-7.12-7.12" fill="none" stroke="#fff" stroke-linecap="round" stroke-linejoin="round" stroke-width="1"/>
    <line id="Line_189" data-name="Line 189" x1="4.488" y1="4.488" transform="translate(5.92 6.96)" fill="none" stroke="#fff" stroke-linecap="round" stroke-linejoin="round" stroke-width="1"/>
    <path id="Path_3908" data-name="Path 3908" d="M1.914,1.54.5,2.954,2.473,6.341l2.717,1.3L6.6,6.23,5.3,3.513Z" fill="none" stroke="#fff" stroke-linecap="round" stroke-linejoin="round" stroke-width="1"/>
  </g>
</svg>
