<svg xmlns="http://www.w3.org/2000/svg" xmlns:xlink="http://www.w3.org/1999/xlink" width="188.79" height="34.934" viewBox="0 0 188.79 34.934">
  <defs>
    <clipPath id="clip-path">
      <rect id="Rectangle_536" data-name="Rectangle 536" width="188.79" height="34.934" transform="translate(0 0)" fill="none"/>
    </clipPath>
  </defs>
  <g id="logo" transform="translate(0 0)">
    <g id="Group_3234" data-name="Group 3234" clip-path="url(#clip-path)">
      <path id="Path_4311" data-name="Path 4311" d="M26.622,17.467A9.227,9.227,0,1,1,17.4,8.24a9.227,9.227,0,0,1,9.227,9.227"/>
      <path id="Path_4312" data-name="Path 4312" d="M10.08,26a.114.114,0,1,1-.114.114A.114.114,0,0,1,10.08,26" fill="#000023"/>
      <path id="Path_4313" data-name="Path 4313" d="M9.749,24.662a.09.09,0,1,1-.09.09.09.09,0,0,1,.09-.09" fill="#000023"/>
      <path id="Path_4314" data-name="Path 4314" d="M11.45,26.17a.09.09,0,1,1-.09.09.09.09,0,0,1,.09-.09" fill="#000023"/>
      <path id="Path_4315" data-name="Path 4315" d="M12.865,26.95a.091.091,0,1,1-.091.091.091.091,0,0,1,.091-.091" fill="#000023"/>
      <path id="Path_4316" data-name="Path 4316" d="M12.807,28.343a.131.131,0,1,1-.131.131.131.131,0,0,1,.131-.131" fill="#000023"/>
      <path id="Path_4317" data-name="Path 4317" d="M11.645,27.709a.13.13,0,1,1-.129.129.129.129,0,0,1,.129-.129" fill="#000023"/>
      <path id="Path_4318" data-name="Path 4318" d="M10.455,27.281a.14.14,0,1,1-.14.139.139.139,0,0,1,.14-.139" fill="#000023"/>
      <path id="Path_4319" data-name="Path 4319" d="M10.64,28.517a.174.174,0,1,1-.174.174.174.174,0,0,1,.174-.174" fill="#000023"/>
      <path id="Path_4320" data-name="Path 4320" d="M9.558,28.1a.183.183,0,1,1-.183.183.183.183,0,0,1,.183-.183" fill="#000023"/>
      <path id="Path_4321" data-name="Path 4321" d="M9.231,26.937a.157.157,0,1,1-.157.157.157.157,0,0,1,.157-.157" fill="#000023"/>
      <path id="Path_4322" data-name="Path 4322" d="M8.76,25.716a.136.136,0,1,1-.136.136.136.136,0,0,1,.136-.136" fill="#000023"/>
      <path id="Path_4323" data-name="Path 4323" d="M8.12,24.582a.128.128,0,1,1-.128.128.128.128,0,0,1,.128-.128" fill="#000023"/>
      <path id="Path_4324" data-name="Path 4324" d="M7.452,25.653a.17.17,0,1,1-.17.17.17.17,0,0,1,.17-.17" fill="#000023"/>
      <path id="Path_4325" data-name="Path 4325" d="M8.057,26.678a.177.177,0,1,1-.177.177.177.177,0,0,1,.177-.177" fill="#000023"/>
      <path id="Path_4326" data-name="Path 4326" d="M8.468,27.777a.2.2,0,1,1-.2.2.2.2,0,0,1,.2-.2" fill="#000023"/>
      <path id="Path_4327" data-name="Path 4327" d="M8.742,28.849a.222.222,0,1,1-.221.221.221.221,0,0,1,.221-.221" fill="#000023"/>
      <path id="Path_4328" data-name="Path 4328" d="M7.892,29.514a.247.247,0,1,1-.247.247.248.248,0,0,1,.247-.247" fill="#000023"/>
      <path id="Path_4329" data-name="Path 4329" d="M8.877,29.9a.241.241,0,1,1-.242.241.241.241,0,0,1,.242-.241" fill="#000023"/>
      <path id="Path_4330" data-name="Path 4330" d="M8.989,30.985a.256.256,0,1,1-.256.256.256.256,0,0,1,.256-.256" fill="#000023"/>
      <path id="Path_4331" data-name="Path 4331" d="M9.853,31.419a.256.256,0,1,1-.256.256.256.256,0,0,1,.256-.256" fill="#000023"/>
      <path id="Path_4332" data-name="Path 4332" d="M10.721,31.843a.256.256,0,1,1-.256.256.256.256,0,0,1,.256-.256" fill="#000023"/>
      <path id="Path_4333" data-name="Path 4333" d="M11.588,32.262a.256.256,0,1,1-.256.256.256.256,0,0,1,.256-.256" fill="#000023"/>
      <path id="Path_4334" data-name="Path 4334" d="M12.452,32.687a.258.258,0,1,1-.258.258.258.258,0,0,1,.258-.258" fill="#000023"/>
      <path id="Path_4335" data-name="Path 4335" d="M12.4,31.626a.24.24,0,1,1-.24.24.24.24,0,0,1,.24-.24" fill="#000023"/>
      <path id="Path_4336" data-name="Path 4336" d="M11.566,31.193a.237.237,0,1,1-.237.237.237.237,0,0,1,.237-.237" fill="#000023"/>
      <path id="Path_4337" data-name="Path 4337" d="M10.694,30.773a.238.238,0,1,1-.238.238.238.238,0,0,1,.238-.238" fill="#000023"/>
      <path id="Path_4338" data-name="Path 4338" d="M9.806,30.329a.239.239,0,1,1-.239.239.239.239,0,0,1,.239-.239" fill="#000023"/>
      <path id="Path_4339" data-name="Path 4339" d="M9.734,29.227a.213.213,0,1,1-.213.213.213.213,0,0,1,.213-.213" fill="#000023"/>
      <path id="Path_4340" data-name="Path 4340" d="M10.694,29.683a.209.209,0,1,1-.209.209.209.209,0,0,1,.209-.209" fill="#000023"/>
      <path id="Path_4341" data-name="Path 4341" d="M11.678,29a.171.171,0,1,1-.171.171A.171.171,0,0,1,11.678,29" fill="#000023"/>
      <path id="Path_4342" data-name="Path 4342" d="M12.692,29.547a.173.173,0,1,1-.173.173.173.173,0,0,1,.173-.173" fill="#000023"/>
      <path id="Path_4343" data-name="Path 4343" d="M11.632,30.135a.209.209,0,1,1-.208.208.208.208,0,0,1,.208-.208" fill="#000023"/>
      <path id="Path_4344" data-name="Path 4344" d="M12.553,30.615a.213.213,0,1,1-.213.213.213.213,0,0,1,.213-.213" fill="#000023"/>
      <path id="Path_4345" data-name="Path 4345" d="M13.434,31.2a.221.221,0,1,1-.22.22.221.221,0,0,1,.22-.22" fill="#000023"/>
      <path id="Path_4346" data-name="Path 4346" d="M14.469,31.091a.211.211,0,1,1-.21.21.21.21,0,0,1,.21-.21" fill="#000023"/>
      <path id="Path_4347" data-name="Path 4347" d="M14.712,29.95a.167.167,0,1,1-.167.167.167.167,0,0,1,.167-.167" fill="#000023"/>
      <path id="Path_4348" data-name="Path 4348" d="M13.637,30.206a.188.188,0,1,1-.187.187.187.187,0,0,1,.187-.187" fill="#000023"/>
      <path id="Path_4349" data-name="Path 4349" d="M13.854,29.047a.143.143,0,1,1-.142.142.142.142,0,0,1,.142-.142" fill="#000023"/>
      <path id="Path_4350" data-name="Path 4350" d="M14.209,27.712a.1.1,0,1,1-.1.1.1.1,0,0,1,.1-.1" fill="#000023"/>
      <path id="Path_4351" data-name="Path 4351" d="M15.844,27.77a.087.087,0,1,1-.087.087.087.087,0,0,1,.087-.087" fill="#000023"/>
      <path id="Path_4352" data-name="Path 4352" d="M15.149,28.857a.127.127,0,1,1-.126.127.127.127,0,0,1,.126-.127" fill="#000023"/>
      <path id="Path_4353" data-name="Path 4353" d="M15.969,29.787a.155.155,0,1,1-.155.155.154.154,0,0,1,.155-.155" fill="#000023"/>
      <path id="Path_4354" data-name="Path 4354" d="M16.711,28.835a.12.12,0,1,1-.119.119.119.119,0,0,1,.119-.119" fill="#000023"/>
      <path id="Path_4355" data-name="Path 4355" d="M17.3,29.89a.154.154,0,1,1-.154.154.154.154,0,0,1,.154-.154" fill="#000023"/>
      <path id="Path_4356" data-name="Path 4356" d="M17.671,30.984a.2.2,0,1,1-.2.2.2.2,0,0,1,.2-.2" fill="#000023"/>
      <path id="Path_4357" data-name="Path 4357" d="M18.729,31.3a.209.209,0,1,1-.208.208.208.208,0,0,1,.208-.208" fill="#000023"/>
      <path id="Path_4358" data-name="Path 4358" d="M19.808,31.651a.222.222,0,1,1-.222.222.222.222,0,0,1,.222-.222" fill="#000023"/>
      <path id="Path_4359" data-name="Path 4359" d="M18.929,32.29a.238.238,0,1,1-.238.238.238.238,0,0,1,.238-.238" fill="#000023"/>
      <path id="Path_4360" data-name="Path 4360" d="M17.93,32.008a.227.227,0,1,1-.227.227.227.227,0,0,1,.227-.227" fill="#000023"/>
      <path id="Path_4361" data-name="Path 4361" d="M18.113,32.99a.251.251,0,1,1-.251.251.251.251,0,0,1,.251-.251" fill="#000023"/>
      <path id="Path_4362" data-name="Path 4362" d="M19.036,33.291a.257.257,0,1,1-.257.257.257.257,0,0,1,.257-.257" fill="#000023"/>
      <path id="Path_4363" data-name="Path 4363" d="M19.851,32.714a.248.248,0,1,1-.248.248.248.248,0,0,1,.248-.248" fill="#000023"/>
      <path id="Path_4364" data-name="Path 4364" d="M20.71,33.149a.258.258,0,1,1-.258.258.258.258,0,0,1,.258-.258" fill="#000023"/>
      <path id="Path_4365" data-name="Path 4365" d="M21.6,32.726a.256.256,0,1,1-.256.256.256.256,0,0,1,.256-.256" fill="#000023"/>
      <path id="Path_4366" data-name="Path 4366" d="M22.535,32.46a.256.256,0,1,1-.256.256.256.256,0,0,1,.256-.256" fill="#000023"/>
      <path id="Path_4367" data-name="Path 4367" d="M22.712,31.5a.24.24,0,1,1-.24.24.24.24,0,0,1,.24-.24" fill="#000023"/>
      <path id="Path_4368" data-name="Path 4368" d="M21.678,31.748a.238.238,0,1,1-.238.238.239.239,0,0,1,.238-.238" fill="#000023"/>
      <path id="Path_4369" data-name="Path 4369" d="M20.73,32.113a.241.241,0,1,1-.241.241.241.241,0,0,1,.241-.241" fill="#000023"/>
      <path id="Path_4370" data-name="Path 4370" d="M20.766,31.034a.211.211,0,1,1-.21.21.21.21,0,0,1,.21-.21" fill="#000023"/>
      <path id="Path_4371" data-name="Path 4371" d="M20.307,30a.169.169,0,1,1-.169.169A.169.169,0,0,1,20.307,30" fill="#000023"/>
      <path id="Path_4372" data-name="Path 4372" d="M19.569,30.664a.19.19,0,1,1-.19.19.19.19,0,0,1,.19-.19" fill="#000023"/>
      <path id="Path_4373" data-name="Path 4373" d="M18.471,30.215a.169.169,0,1,1-.169.169.169.169,0,0,1,.169-.169" fill="#000023"/>
      <path id="Path_4374" data-name="Path 4374" d="M19.311,29.423a.143.143,0,1,1-.142.142.142.142,0,0,1,.142-.142" fill="#000023"/>
      <path id="Path_4375" data-name="Path 4375" d="M18.164,29a.122.122,0,1,1-.122.122A.122.122,0,0,1,18.164,29" fill="#000023"/>
      <path id="Path_4376" data-name="Path 4376" d="M17.674,27.757a.084.084,0,1,1-.083.083.083.083,0,0,1,.083-.083" fill="#000023"/>
      <path id="Path_4377" data-name="Path 4377" d="M19.3,27.938a.094.094,0,1,1-.094.094.094.094,0,0,1,.094-.094" fill="#000023"/>
      <path id="Path_4378" data-name="Path 4378" d="M20.91,27.415a.091.091,0,1,1-.091.091.091.091,0,0,1,.091-.091" fill="#000023"/>
      <path id="Path_4379" data-name="Path 4379" d="M20.369,28.8a.129.129,0,1,1-.128.128.128.128,0,0,1,.128-.128" fill="#000023"/>
      <path id="Path_4380" data-name="Path 4380" d="M21.525,28.758a.14.14,0,1,1-.139.139.14.14,0,0,1,.139-.139" fill="#000023"/>
      <path id="Path_4381" data-name="Path 4381" d="M21.277,29.909a.176.176,0,1,1-.175.175.175.175,0,0,1,.175-.175" fill="#000023"/>
      <path id="Path_4382" data-name="Path 4382" d="M21.885,30.8a.214.214,0,1,1-.214.214.214.214,0,0,1,.214-.214" fill="#000023"/>
      <path id="Path_4383" data-name="Path 4383" d="M22.324,29.852a.188.188,0,1,1-.187.187.187.187,0,0,1,.187-.187" fill="#000023"/>
      <path id="Path_4384" data-name="Path 4384" d="M23.048,30.579a.22.22,0,1,1-.219.219.219.219,0,0,1,.219-.219" fill="#000023"/>
      <path id="Path_4385" data-name="Path 4385" d="M23.8,31.248a.243.243,0,1,1-.242.242.242.242,0,0,1,.242-.242" fill="#000023"/>
      <path id="Path_4386" data-name="Path 4386" d="M24.149,30.32a.225.225,0,1,1-.225.225.225.225,0,0,1,.225-.225" fill="#000023"/>
      <path id="Path_4387" data-name="Path 4387" d="M24.912,31.07a.25.25,0,1,1-.25.25.25.25,0,0,1,.25-.25" fill="#000023"/>
      <path id="Path_4388" data-name="Path 4388" d="M25.845,30.815a.254.254,0,1,1-.254.254.254.254,0,0,1,.254-.254" fill="#000023"/>
      <path id="Path_4389" data-name="Path 4389" d="M25.14,30.054a.232.232,0,1,1-.232.232.232.232,0,0,1,.232-.232" fill="#000023"/>
      <path id="Path_4390" data-name="Path 4390" d="M26.138,29.818a.241.241,0,1,1-.241.241.241.241,0,0,1,.241-.241" fill="#000023"/>
      <path id="Path_4391" data-name="Path 4391" d="M26.811,30.535a.259.259,0,1,1-.259.259.259.259,0,0,1,.259-.259" fill="#000023"/>
      <path id="Path_4392" data-name="Path 4392" d="M27.2,29.651a.251.251,0,1,1-.251.251.251.251,0,0,1,.251-.251" fill="#000023"/>
      <path id="Path_4393" data-name="Path 4393" d="M26.466,28.869a.227.227,0,1,1-.227.227.227.227,0,0,1,.227-.227" fill="#000023"/>
      <path id="Path_4394" data-name="Path 4394" d="M25.742,28.028a.19.19,0,1,1-.19.19.19.19,0,0,1,.19-.19" fill="#000023"/>
      <path id="Path_4395" data-name="Path 4395" d="M25.423,29.035a.213.213,0,1,1-.213.213.213.213,0,0,1,.213-.213" fill="#000023"/>
      <path id="Path_4396" data-name="Path 4396" d="M24.409,29.253a.2.2,0,1,1-.2.2.2.2,0,0,1,.2-.2" fill="#000023"/>
      <path id="Path_4397" data-name="Path 4397" d="M24.668,28.15a.17.17,0,1,1-.17.17.17.17,0,0,1,.17-.17" fill="#000023"/>
      <path id="Path_4398" data-name="Path 4398" d="M23.6,28.423a.159.159,0,1,1-.159.159.159.159,0,0,1,.159-.159" fill="#000023"/>
      <path id="Path_4399" data-name="Path 4399" d="M23.408,29.584a.195.195,0,1,1-.2.195.2.2,0,0,1,.2-.195" fill="#000023"/>
      <path id="Path_4400" data-name="Path 4400" d="M22.625,28.874a.156.156,0,1,1-.156.156.156.156,0,0,1,.156-.156" fill="#000023"/>
      <path id="Path_4401" data-name="Path 4401" d="M22.4,27.752a.118.118,0,1,1-.117.117.117.117,0,0,1,.117-.117" fill="#000023"/>
      <path id="Path_4402" data-name="Path 4402" d="M22.494,26.421a.083.083,0,1,1-.083.083.083.083,0,0,1,.083-.083" fill="#000023"/>
      <path id="Path_4403" data-name="Path 4403" d="M23.7,27.242a.126.126,0,1,1-.126.126.126.126,0,0,1,.126-.126" fill="#000023"/>
      <path id="Path_4404" data-name="Path 4404" d="M24.016,25.835a.095.095,0,1,1-.094.094.094.094,0,0,1,.094-.094" fill="#000023"/>
      <path id="Path_4405" data-name="Path 4405" d="M25.138,24.661a.091.091,0,1,1-.091.091.091.091,0,0,1,.091-.091" fill="#000023"/>
      <path id="Path_4406" data-name="Path 4406" d="M26.6,24.889a.131.131,0,1,1-.13.13.13.13,0,0,1,.13-.13" fill="#000023"/>
      <path id="Path_4407" data-name="Path 4407" d="M27.9,24.838a.165.165,0,1,1-.165.165.165.165,0,0,1,.165-.165" fill="#000023"/>
      <path id="Path_4408" data-name="Path 4408" d="M27.612,25.859a.181.181,0,1,1-.181.181.181.181,0,0,1,.181-.181" fill="#000023"/>
      <path id="Path_4409" data-name="Path 4409" d="M26.59,26.064a.158.158,0,1,1-.158.158.158.158,0,0,1,.158-.158" fill="#000023"/>
      <path id="Path_4410" data-name="Path 4410" d="M25.468,25.9a.128.128,0,1,1-.128.128.128.128,0,0,1,.128-.128" fill="#000023"/>
      <path id="Path_4411" data-name="Path 4411" d="M24.922,27.01a.142.142,0,1,1-.141.141.141.141,0,0,1,.141-.141" fill="#000023"/>
      <path id="Path_4412" data-name="Path 4412" d="M26.1,27.029a.171.171,0,1,1-.171.171.171.171,0,0,1,.171-.171" fill="#000023"/>
      <path id="Path_4413" data-name="Path 4413" d="M27.24,26.942a.2.2,0,1,1-.2.2.2.2,0,0,1,.2-.2" fill="#000023"/>
      <path id="Path_4414" data-name="Path 4414" d="M26.818,27.9a.211.211,0,1,1-.211.211.211.211,0,0,1,.211-.211" fill="#000023"/>
      <path id="Path_4415" data-name="Path 4415" d="M27.872,27.782a.231.231,0,1,1-.231.23.23.23,0,0,1,.231-.23" fill="#000023"/>
      <path id="Path_4416" data-name="Path 4416" d="M27.482,28.7a.239.239,0,1,1-.239.239.239.239,0,0,1,.239-.239" fill="#000023"/>
      <path id="Path_4417" data-name="Path 4417" d="M28.522,28.579a.253.253,0,1,1-.253.253.253.253,0,0,1,.253-.253" fill="#000023"/>
      <path id="Path_4418" data-name="Path 4418" d="M28.868,27.6a.245.245,0,1,1-.244.244.244.244,0,0,1,.244-.244" fill="#000023"/>
      <path id="Path_4419" data-name="Path 4419" d="M28.254,26.815a.219.219,0,1,1-.219.219.219.219,0,0,1,.219-.219" fill="#000023"/>
      <path id="Path_4420" data-name="Path 4420" d="M28.639,25.922a.211.211,0,1,1-.21.21.21.21,0,0,1,.21-.21" fill="#000023"/>
      <path id="Path_4421" data-name="Path 4421" d="M28.927,25.016a.2.2,0,1,1-.2.2.2.2,0,0,1,.2-.2" fill="#000023"/>
      <path id="Path_4422" data-name="Path 4422" d="M29.83,24.739a.219.219,0,1,1-.219.219.219.219,0,0,1,.219-.219" fill="#000023"/>
      <path id="Path_4423" data-name="Path 4423" d="M30.025,23.782a.212.212,0,1,1-.212.212.212.212,0,0,1,.212-.212" fill="#000023"/>
      <path id="Path_4424" data-name="Path 4424" d="M30.476,22.858a.212.212,0,1,1-.212.212.212.212,0,0,1,.212-.212" fill="#000023"/>
      <path id="Path_4425" data-name="Path 4425" d="M30.9,21.982a.212.212,0,1,1-.212.212.212.212,0,0,1,.212-.212" fill="#000023"/>
      <path id="Path_4426" data-name="Path 4426" d="M31.33,21.161a.218.218,0,1,1-.219.218.218.218,0,0,1,.219-.218" fill="#000023"/>
      <path id="Path_4427" data-name="Path 4427" d="M32.123,20.674a.235.235,0,1,1-.235.235.235.235,0,0,1,.235-.235" fill="#000023"/>
      <path id="Path_4428" data-name="Path 4428" d="M32.085,21.794a.242.242,0,1,1-.242.242.242.242,0,0,1,.242-.242" fill="#000023"/>
      <path id="Path_4429" data-name="Path 4429" d="M31.6,22.724a.237.237,0,1,1-.237.237.237.237,0,0,1,.237-.237" fill="#000023"/>
      <path id="Path_4430" data-name="Path 4430" d="M31.176,23.619a.239.239,0,1,1-.239.239.239.239,0,0,1,.239-.239" fill="#000023"/>
      <path id="Path_4431" data-name="Path 4431" d="M30.832,24.523a.241.241,0,1,1-.241.241.241.241,0,0,1,.241-.241" fill="#000023"/>
      <path id="Path_4432" data-name="Path 4432" d="M30.517,25.5a.244.244,0,1,1-.244.244.244.244,0,0,1,.244-.244" fill="#000023"/>
      <path id="Path_4433" data-name="Path 4433" d="M29.66,25.822a.233.233,0,1,1-.233.232.232.232,0,0,1,.233-.232" fill="#000023"/>
      <path id="Path_4434" data-name="Path 4434" d="M29.329,26.735a.239.239,0,1,1-.239.239.239.239,0,0,1,.239-.239" fill="#000023"/>
      <path id="Path_4435" data-name="Path 4435" d="M29.925,27.546a.258.258,0,1,1-.258.258.258.258,0,0,1,.258-.258" fill="#000023"/>
      <path id="Path_4436" data-name="Path 4436" d="M30.372,26.652a.256.256,0,1,1-.255.255.255.255,0,0,1,.255-.255" fill="#000023"/>
      <path id="Path_4437" data-name="Path 4437" d="M31.19,26.121a.26.26,0,1,1-.26.26.259.259,0,0,1,.26-.26" fill="#000023"/>
      <path id="Path_4438" data-name="Path 4438" d="M31.5,25.276a.257.257,0,1,1-.257.257.257.257,0,0,1,.257-.257" fill="#000023"/>
      <path id="Path_4439" data-name="Path 4439" d="M31.887,24.405a.256.256,0,1,1-.255.255.255.255,0,0,1,.255-.255" fill="#000023"/>
      <path id="Path_4440" data-name="Path 4440" d="M32.237,23.6a.256.256,0,1,1-.256.256.256.256,0,0,1,.256-.256" fill="#000023"/>
      <path id="Path_4441" data-name="Path 4441" d="M32.6,22.749a.257.257,0,1,1-.257.257.257.257,0,0,1,.257-.257" fill="#000023"/>
      <path id="Path_4442" data-name="Path 4442" d="M33.033,22.022a.259.259,0,1,1-.259.259.259.259,0,0,1,.259-.259" fill="#000023"/>
      <path id="Path_4443" data-name="Path 4443" d="M33,21.084a.255.255,0,1,1-.254.254A.254.254,0,0,1,33,21.084" fill="#000023"/>
      <path id="Path_4444" data-name="Path 4444" d="M32.73,19.949a.245.245,0,1,1-.245.245.245.245,0,0,1,.245-.245" fill="#000023"/>
      <path id="Path_4445" data-name="Path 4445" d="M33.573,19.312a.258.258,0,1,1-.258.258.258.258,0,0,1,.258-.258" fill="#000023"/>
      <path id="Path_4446" data-name="Path 4446" d="M32.7,18.914a.243.243,0,1,1-.242.242.242.242,0,0,1,.242-.242" fill="#000023"/>
      <path id="Path_4447" data-name="Path 4447" d="M31.79,18.477a.217.217,0,1,1-.217.217.217.217,0,0,1,.217-.217" fill="#000023"/>
      <path id="Path_4448" data-name="Path 4448" d="M30.828,17.992a.184.184,0,1,1-.184.184.184.184,0,0,1,.184-.184" fill="#000023"/>
      <path id="Path_4449" data-name="Path 4449" d="M31.78,17.4a.214.214,0,1,1-.214.214.214.214,0,0,1,.214-.214" fill="#000023"/>
      <path id="Path_4450" data-name="Path 4450" d="M32.7,17.89a.241.241,0,1,1-.241.241.241.241,0,0,1,.241-.241" fill="#000023"/>
      <path id="Path_4451" data-name="Path 4451" d="M32.729,16.884a.24.24,0,1,1-.24.24.241.241,0,0,1,.24-.24" fill="#000023"/>
      <path id="Path_4452" data-name="Path 4452" d="M31.838,16.321a.218.218,0,1,1-.218.218.218.218,0,0,1,.218-.218" fill="#000023"/>
      <path id="Path_4453" data-name="Path 4453" d="M30.864,16.8a.184.184,0,1,1-.184.184.184.184,0,0,1,.184-.184" fill="#000023"/>
      <path id="Path_4454" data-name="Path 4454" d="M29.853,17.382a.149.149,0,1,1-.149.149.149.149,0,0,1,.149-.149" fill="#000023"/>
      <path id="Path_4455" data-name="Path 4455" d="M28.869,18.185a.117.117,0,1,1-.117.117.117.117,0,0,1,.117-.117" fill="#000023"/>
      <path id="Path_4456" data-name="Path 4456" d="M29.883,18.739a.153.153,0,1,1-.152.152.152.152,0,0,1,.152-.152" fill="#000023"/>
      <path id="Path_4457" data-name="Path 4457" d="M30.907,19.128a.192.192,0,1,1-.192.192.192.192,0,0,1,.192-.192" fill="#000023"/>
      <path id="Path_4458" data-name="Path 4458" d="M31.868,19.551a.222.222,0,1,1-.222.222.222.222,0,0,1,.222-.222" fill="#000023"/>
      <path id="Path_4459" data-name="Path 4459" d="M31.1,20.2a.2.2,0,1,1-.2.2.205.205,0,0,1,.2-.2" fill="#000023"/>
      <path id="Path_4460" data-name="Path 4460" d="M30.029,19.935a.164.164,0,1,1-.163.163.163.163,0,0,1,.163-.163" fill="#000023"/>
      <path id="Path_4461" data-name="Path 4461" d="M30.3,21.011a.184.184,0,1,1-.184.184.184.184,0,0,1,.184-.184" fill="#000023"/>
      <path id="Path_4462" data-name="Path 4462" d="M29.741,21.947a.173.173,0,1,1-.173.173.173.173,0,0,1,.173-.173" fill="#000023"/>
      <path id="Path_4463" data-name="Path 4463" d="M29.335,22.943a.175.175,0,1,1-.174.174.174.174,0,0,1,.174-.174" fill="#000023"/>
      <path id="Path_4464" data-name="Path 4464" d="M28.826,23.971a.176.176,0,1,1-.175.175.175.175,0,0,1,.175-.175" fill="#000023"/>
      <path id="Path_4465" data-name="Path 4465" d="M28.146,22.963a.139.139,0,1,1-.139.139.139.139,0,0,1,.139-.139" fill="#000023"/>
      <path id="Path_4466" data-name="Path 4466" d="M27.424,23.818a.133.133,0,1,1-.133.133.134.134,0,0,1,.133-.133" fill="#000023"/>
      <path id="Path_4467" data-name="Path 4467" d="M26.161,23.5a.092.092,0,1,1-.092.092.092.092,0,0,1,.092-.092" fill="#000023"/>
      <path id="Path_4468" data-name="Path 4468" d="M26.972,22.173a.092.092,0,1,1-.092.092.092.092,0,0,1,.092-.092" fill="#000023"/>
      <path id="Path_4469" data-name="Path 4469" d="M27.657,20.729a.095.095,0,1,1-.094.094.094.094,0,0,1,.094-.094" fill="#000023"/>
      <path id="Path_4470" data-name="Path 4470" d="M28.486,21.871a.131.131,0,1,1-.131.131.131.131,0,0,1,.131-.131" fill="#000023"/>
      <path id="Path_4471" data-name="Path 4471" d="M29.132,20.849a.143.143,0,1,1-.142.142.142.142,0,0,1,.142-.142" fill="#000023"/>
      <path id="Path_4472" data-name="Path 4472" d="M28.887,19.658a.124.124,0,1,1-.124.124.124.124,0,0,1,.124-.124" fill="#000023"/>
      <path id="Path_4473" data-name="Path 4473" d="M27.732,19.146a.085.085,0,0,1,.085.085.085.085,0,1,1-.17,0,.085.085,0,0,1,.085-.085" fill="#000023"/>
      <path id="Path_4474" data-name="Path 4474" d="M27.782,17.389a.084.084,0,1,1-.083.083.083.083,0,0,1,.083-.083" fill="#000023"/>
      <path id="Path_4475" data-name="Path 4475" d="M28.9,16.588a.117.117,0,1,1-.118.117.118.118,0,0,1,.118-.117" fill="#000023"/>
      <path id="Path_4476" data-name="Path 4476" d="M29.977,16.046a.154.154,0,1,1-.154.154.154.154,0,0,1,.154-.154" fill="#000023"/>
      <path id="Path_4477" data-name="Path 4477" d="M31,15.606a.194.194,0,1,1-.194.194A.194.194,0,0,1,31,15.606" fill="#000023"/>
      <path id="Path_4478" data-name="Path 4478" d="M31.962,15.248a.223.223,0,1,1-.223.223.223.223,0,0,1,.223-.223" fill="#000023"/>
      <path id="Path_4479" data-name="Path 4479" d="M32.863,14.959a.245.245,0,1,1-.245.245.245.245,0,0,1,.245-.245" fill="#000023"/>
      <path id="Path_4480" data-name="Path 4480" d="M32.37,14.172a.239.239,0,1,1-.239.239.239.239,0,0,1,.239-.239" fill="#000023"/>
      <path id="Path_4481" data-name="Path 4481" d="M31.777,13.415a.229.229,0,1,1-.229.229.229.229,0,0,1,.229-.229" fill="#000023"/>
      <path id="Path_4482" data-name="Path 4482" d="M32.165,12.494a.245.245,0,1,1-.244.244.244.244,0,0,1,.244-.244" fill="#000023"/>
      <path id="Path_4483" data-name="Path 4483" d="M31.653,11.581a.24.24,0,1,1-.24.24.24.24,0,0,1,.24-.24" fill="#000023"/>
      <path id="Path_4484" data-name="Path 4484" d="M31.169,10.645a.238.238,0,1,1-.238.238.238.238,0,0,1,.238-.238" fill="#000023"/>
      <path id="Path_4485" data-name="Path 4485" d="M31.769,9.738a.256.256,0,1,1-.256.256.256.256,0,0,1,.256-.256" fill="#000023"/>
      <path id="Path_4486" data-name="Path 4486" d="M31.323,8.832a.257.257,0,1,1-.257.257.257.257,0,0,1,.257-.257" fill="#000023"/>
      <path id="Path_4487" data-name="Path 4487" d="M30.84,7.959a.258.258,0,1,1-.258.258.258.258,0,0,1,.258-.258" fill="#000023"/>
      <path id="Path_4488" data-name="Path 4488" d="M30.2,8.741a.241.241,0,1,1-.241.241.241.241,0,0,1,.241-.241" fill="#000023"/>
      <path id="Path_4489" data-name="Path 4489" d="M29.581,9.637a.215.215,0,1,1-.215.215.215.215,0,0,1,.215-.215" fill="#000023"/>
      <path id="Path_4490" data-name="Path 4490" d="M30.688,9.693a.239.239,0,1,1-.239.239.239.239,0,0,1,.239-.239" fill="#000023"/>
      <path id="Path_4491" data-name="Path 4491" d="M30.087,10.638a.212.212,0,1,1-.212.212.212.212,0,0,1,.212-.212" fill="#000023"/>
      <path id="Path_4492" data-name="Path 4492" d="M30.58,11.626a.214.214,0,1,1-.214.214.214.214,0,0,1,.214-.214" fill="#000023"/>
      <path id="Path_4493" data-name="Path 4493" d="M31.1,12.573a.219.219,0,1,1-.219.219.219.219,0,0,1,.219-.219" fill="#000023"/>
      <path id="Path_4494" data-name="Path 4494" d="M30.633,13.615a.191.191,0,1,1-.191.191.192.192,0,0,1,.191-.191" fill="#000023"/>
      <path id="Path_4495" data-name="Path 4495" d="M31.321,14.446a.21.21,0,1,1-.209.209.209.209,0,0,1,.209-.209" fill="#000023"/>
      <path id="Path_4496" data-name="Path 4496" d="M30.243,14.774a.169.169,0,1,1-.169.169.169.169,0,0,1,.169-.169" fill="#000023"/>
      <path id="Path_4497" data-name="Path 4497" d="M29.09,15.148a.129.129,0,1,1-.128.128.128.128,0,0,1,.128-.128" fill="#000023"/>
      <path id="Path_4498" data-name="Path 4498" d="M27.76,15.622a.085.085,0,0,1,.085.085.085.085,0,1,1-.17,0,.085.085,0,0,1,.085-.085" fill="#000023"/>
      <path id="Path_4499" data-name="Path 4499" d="M28.049,14.163a.106.106,0,1,1-.1.1.1.1,0,0,1,.1-.1" fill="#000023"/>
      <path id="Path_4500" data-name="Path 4500" d="M29.436,13.855a.15.15,0,1,1-.15.15.15.15,0,0,1,.15-.15" fill="#000023"/>
      <path id="Path_4501" data-name="Path 4501" d="M29.976,12.681a.181.181,0,1,1-.181.181.181.181,0,0,1,.181-.181" fill="#000023"/>
      <path id="Path_4502" data-name="Path 4502" d="M29.429,11.673a.177.177,0,1,1-.176.176.176.176,0,0,1,.176-.176" fill="#000023"/>
      <path id="Path_4503" data-name="Path 4503" d="M28.943,10.616a.18.18,0,1,1-.18.18.181.181,0,0,1,.18-.18" fill="#000023"/>
      <path id="Path_4504" data-name="Path 4504" d="M28.135,11.723a.135.135,0,1,1-.135.135.134.134,0,0,1,.135-.135" fill="#000023"/>
      <path id="Path_4505" data-name="Path 4505" d="M28.729,12.832a.138.138,0,1,1-.138.138.138.138,0,0,1,.138-.138" fill="#000023"/>
      <path id="Path_4506" data-name="Path 4506" d="M27.273,13.017a.095.095,0,1,1-.094.094.094.094,0,0,1,.094-.094" fill="#000023"/>
      <path id="Path_4507" data-name="Path 4507" d="M26.665,11.675a.1.1,0,1,1-.1.1.1.1,0,0,1,.1-.1" fill="#000023"/>
      <path id="Path_4508" data-name="Path 4508" d="M26.624,10.259a.12.12,0,1,1-.12.12.12.12,0,0,1,.12-.12" fill="#000023"/>
      <path id="Path_4509" data-name="Path 4509" d="M25.285,10.6a.084.084,0,1,1-.084.083.083.083,0,0,1,.084-.083" fill="#000023"/>
      <path id="Path_4510" data-name="Path 4510" d="M24.52,9.136a.1.1,0,1,1-.1.1.1.1,0,0,1,.1-.1" fill="#000023"/>
      <path id="Path_4511" data-name="Path 4511" d="M25.983,9.111a.128.128,0,1,1-.128.128.128.128,0,0,1,.128-.128" fill="#000023"/>
      <path id="Path_4512" data-name="Path 4512" d="M25.649,7.893a.152.152,0,1,1-.151.151.151.151,0,0,1,.151-.151" fill="#000023"/>
      <path id="Path_4513" data-name="Path 4513" d="M24.462,7.734a.13.13,0,1,1-.129.129.129.129,0,0,1,.129-.129" fill="#000023"/>
      <path id="Path_4514" data-name="Path 4514" d="M23.708,6.806a.142.142,0,1,1-.141.141.141.141,0,0,1,.141-.141" fill="#000023"/>
      <path id="Path_4515" data-name="Path 4515" d="M24.392,5.829a.181.181,0,1,1-.181.181.181.181,0,0,1,.181-.181" fill="#000023"/>
      <path id="Path_4516" data-name="Path 4516" d="M25.241,6.66a.174.174,0,1,1-.174.174.174.174,0,0,1,.174-.174" fill="#000023"/>
      <path id="Path_4517" data-name="Path 4517" d="M25.315,5.319a.214.214,0,1,1-.214.214.214.214,0,0,1,.214-.214" fill="#000023"/>
      <path id="Path_4518" data-name="Path 4518" d="M25.375,4.245a.237.237,0,1,1-.237.237.237.237,0,0,1,.237-.237" fill="#000023"/>
      <path id="Path_4519" data-name="Path 4519" d="M26.288,4.734a.24.24,0,1,1-.239.24.24.24,0,0,1,.239-.24" fill="#000023"/>
      <path id="Path_4520" data-name="Path 4520" d="M27.059,5.269a.24.24,0,1,1-.24.24.24.24,0,0,1,.24-.24" fill="#000023"/>
      <path id="Path_4521" data-name="Path 4521" d="M26.2,5.926a.214.214,0,1,1-.214.214.214.214,0,0,1,.214-.214" fill="#000023"/>
      <path id="Path_4522" data-name="Path 4522" d="M26.483,6.994a.192.192,0,1,1-.192.192.192.192,0,0,1,.192-.192" fill="#000023"/>
      <path id="Path_4523" data-name="Path 4523" d="M26.868,8.118a.173.173,0,1,1-.173.173.173.173,0,0,1,.173-.173" fill="#000023"/>
      <path id="Path_4524" data-name="Path 4524" d="M27.66,7.263a.213.213,0,1,1-.213.213.213.213,0,0,1,.213-.213" fill="#000023"/>
      <path id="Path_4525" data-name="Path 4525" d="M27.341,6.24a.228.228,0,1,1-.228.228.228.228,0,0,1,.228-.228" fill="#000023"/>
      <path id="Path_4526" data-name="Path 4526" d="M28.4,6.4a.241.241,0,1,1-.241.241A.241.241,0,0,1,28.4,6.4" fill="#000023"/>
      <path id="Path_4527" data-name="Path 4527" d="M28.764,7.428a.234.234,0,1,1-.233.233.233.233,0,0,1,.233-.233" fill="#000023"/>
      <path id="Path_4528" data-name="Path 4528" d="M28.063,8.321a.2.2,0,1,1-.2.2.2.2,0,0,1,.2-.2" fill="#000023"/>
      <path id="Path_4529" data-name="Path 4529" d="M27.328,9.24a.158.158,0,1,1-.158.158.158.158,0,0,1,.158-.158" fill="#000023"/>
      <path id="Path_4530" data-name="Path 4530" d="M27.776,10.529a.144.144,0,1,1-.144.144.144.144,0,0,1,.144-.144" fill="#000023"/>
      <path id="Path_4531" data-name="Path 4531" d="M28.462,9.492a.185.185,0,1,1-.185.185.185.185,0,0,1,.185-.185" fill="#000023"/>
      <path id="Path_4532" data-name="Path 4532" d="M29.118,8.584A.22.22,0,1,1,28.9,8.8a.219.219,0,0,1,.219-.219" fill="#000023"/>
      <path id="Path_4533" data-name="Path 4533" d="M29.737,7.753A.245.245,0,1,1,29.493,8a.244.244,0,0,1,.244-.244" fill="#000023"/>
      <path id="Path_4534" data-name="Path 4534" d="M30.363,7.072a.26.26,0,1,1-.26.26.259.259,0,0,1,.26-.26" fill="#000023"/>
      <path id="Path_4535" data-name="Path 4535" d="M29.482,6.567a.255.255,0,1,1-.254.254.254.254,0,0,1,.254-.254" fill="#000023"/>
      <path id="Path_4536" data-name="Path 4536" d="M28.969,5.542a.26.26,0,1,1-.26.26.259.259,0,0,1,.26-.26" fill="#000023"/>
      <path id="Path_4537" data-name="Path 4537" d="M28.011,5.311a.252.252,0,1,1-.252.252.252.252,0,0,1,.252-.252" fill="#000023"/>
      <path id="Path_4538" data-name="Path 4538" d="M27.386,4.285a.258.258,0,1,1-.258.258.258.258,0,0,1,.258-.258" fill="#000023"/>
      <path id="Path_4539" data-name="Path 4539" d="M26.375,3.714a.256.256,0,1,1-.256.256.256.256,0,0,1,.256-.256" fill="#000023"/>
      <path id="Path_4540" data-name="Path 4540" d="M25.508,3.125a.257.257,0,1,1-.257.257.257.257,0,0,1,.257-.257" fill="#000023"/>
      <path id="Path_4541" data-name="Path 4541" d="M24.444,2.58a.257.257,0,1,1-.257.257.257.257,0,0,1,.257-.257" fill="#000023"/>
      <path id="Path_4542" data-name="Path 4542" d="M23.34,2.469a.251.251,0,1,1-.251.251.251.251,0,0,1,.251-.251" fill="#000023"/>
      <path id="Path_4543" data-name="Path 4543" d="M22.662,3.346a.229.229,0,1,1-.229.229.229.229,0,0,1,.229-.229" fill="#000023"/>
      <path id="Path_4544" data-name="Path 4544" d="M23.691,3.514a.235.235,0,1,1-.235.235.235.235,0,0,1,.235-.235" fill="#000023"/>
      <path id="Path_4545" data-name="Path 4545" d="M24.63,3.61a.242.242,0,1,1-.242.242.242.242,0,0,1,.242-.242" fill="#000023"/>
      <path id="Path_4546" data-name="Path 4546" d="M24.248,4.666a.214.214,0,1,1-.214.214.214.214,0,0,1,.214-.214" fill="#000023"/>
      <path id="Path_4547" data-name="Path 4547" d="M23.1,4.472a.2.2,0,1,1-.2.2.2.2,0,0,1,.2-.2" fill="#000023"/>
      <path id="Path_4548" data-name="Path 4548" d="M23.269,5.6a.169.169,0,1,1-.169.169.169.169,0,0,1,.169-.169" fill="#000023"/>
      <path id="Path_4549" data-name="Path 4549" d="M22.06,5.452a.157.157,0,1,1-.157.157.157.157,0,0,1,.157-.157" fill="#000023"/>
      <path id="Path_4550" data-name="Path 4550" d="M22.009,4.271a.2.2,0,1,1-.2.2.2.2,0,0,1,.2-.2" fill="#000023"/>
      <path id="Path_4551" data-name="Path 4551" d="M20.892,5.042a.156.156,0,1,1-.156.156.156.156,0,0,1,.156-.156" fill="#000023"/>
      <path id="Path_4552" data-name="Path 4552" d="M20.842,6.281a.119.119,0,1,1-.118.118.118.118,0,0,1,.118-.118" fill="#000023"/>
      <path id="Path_4553" data-name="Path 4553" d="M22.371,6.715a.123.123,0,1,1-.123.123.123.123,0,0,1,.123-.123" fill="#000023"/>
      <path id="Path_4554" data-name="Path 4554" d="M23.017,8.19a.094.094,0,1,1-.094.094.094.094,0,0,1,.094-.094" fill="#000023"/>
      <path id="Path_4555" data-name="Path 4555" d="M21.209,7.667a.085.085,0,1,1-.084.084.084.084,0,0,1,.084-.084" fill="#000023"/>
      <path id="Path_4556" data-name="Path 4556" d="M19.294,6.731a.094.094,0,1,1-.094.094.094.094,0,0,1,.094-.094" fill="#000023"/>
      <path id="Path_4557" data-name="Path 4557" d="M19.631,5.34a.138.138,0,1,1-.138.138.138.138,0,0,1,.138-.138" fill="#000023"/>
      <path id="Path_4558" data-name="Path 4558" d="M19.906,4.122a.179.179,0,1,1-.179.179.179.179,0,0,1,.179-.179" fill="#000023"/>
      <path id="Path_4559" data-name="Path 4559" d="M20.975,3.958a.194.194,0,1,1-.194.194.194.194,0,0,1,.194-.194" fill="#000023"/>
      <path id="Path_4560" data-name="Path 4560" d="M21.578,3.14a.224.224,0,1,1-.224.224.224.224,0,0,1,.224-.224" fill="#000023"/>
      <path id="Path_4561" data-name="Path 4561" d="M22.168,2.351a.247.247,0,1,1-.247.247.248.248,0,0,1,.247-.247" fill="#000023"/>
      <path id="Path_4562" data-name="Path 4562" d="M22.72,1.59a.261.261,0,1,1-.261.261.261.261,0,0,1,.261-.261" fill="#000023"/>
      <path id="Path_4563" data-name="Path 4563" d="M23.2.815a.251.251,0,1,1-.251.251A.251.251,0,0,1,23.2.815" fill="#000023"/>
      <path id="Path_4564" data-name="Path 4564" d="M23.847,1.521a.266.266,0,1,1-.265.265.265.265,0,0,1,.265-.265" fill="#000023"/>
      <path id="Path_4565" data-name="Path 4565" d="M24.746,1.614a.268.268,0,1,1-.267.267.267.267,0,0,1,.267-.267" fill="#000023"/>
      <path id="Path_4566" data-name="Path 4566" d="M25.532,2.145a.267.267,0,1,1-.266.266.266.266,0,0,1,.266-.266" fill="#000023"/>
      <path id="Path_4567" data-name="Path 4567" d="M26.443,2.58a.268.268,0,1,1-.267.267.267.267,0,0,1,.267-.267" fill="#000023"/>
      <path id="Path_4568" data-name="Path 4568" d="M27.217,3.2a.267.267,0,1,1-.266.266.266.266,0,0,1,.266-.266" fill="#000023"/>
      <path id="Path_4569" data-name="Path 4569" d="M28.139,3.548a.253.253,0,1,1-.253.253.253.253,0,0,1,.253-.253" fill="#000023"/>
      <path id="Path_4570" data-name="Path 4570" d="M28.527,4.428a.266.266,0,1,1-.265.265.265.265,0,0,1,.265-.265" fill="#000023"/>
      <path id="Path_4571" data-name="Path 4571" d="M29.465,4.671a.264.264,0,1,1-.264.264.264.264,0,0,1,.264-.264" fill="#000023"/>
      <path id="Path_4572" data-name="Path 4572" d="M29.945,5.613a.267.267,0,1,1-.266.266.266.266,0,0,1,.266-.266" fill="#000023"/>
      <path id="Path_4573" data-name="Path 4573" d="M30.673,6.24a.268.268,0,1,1-.267.267.267.267,0,0,1,.267-.267" fill="#000023"/>
      <path id="Path_4574" data-name="Path 4574" d="M31.367,7.1a.268.268,0,1,1-.267.267.267.267,0,0,1,.267-.267" fill="#000023"/>
      <path id="Path_4575" data-name="Path 4575" d="M31.946,7.972a.267.267,0,1,1-.266.266.266.266,0,0,1,.266-.266" fill="#000023"/>
      <path id="Path_4576" data-name="Path 4576" d="M32.4,8.889a.267.267,0,1,1-.266.266.266.266,0,0,1,.266-.266" fill="#000023"/>
      <path id="Path_4577" data-name="Path 4577" d="M32.832,9.781a.267.267,0,1,1-.266.266.266.266,0,0,1,.266-.266" fill="#000023"/>
      <path id="Path_4578" data-name="Path 4578" d="M32.227,10.627a.256.256,0,1,1-.256.256.256.256,0,0,1,.256-.256" fill="#000023"/>
      <path id="Path_4579" data-name="Path 4579" d="M32.675,11.507a.257.257,0,1,1-.257.257.257.257,0,0,1,.257-.257" fill="#000023"/>
      <path id="Path_4580" data-name="Path 4580" d="M33.27,10.677a.268.268,0,1,1-.267.267.267.267,0,0,1,.267-.267" fill="#000023"/>
      <path id="Path_4581" data-name="Path 4581" d="M33.725,11.621a.268.268,0,1,1-.267.267.267.267,0,0,1,.267-.267" fill="#000023"/>
      <path id="Path_4582" data-name="Path 4582" d="M33.921,12.694a.267.267,0,1,1-.266.266.266.266,0,0,1,.266-.266" fill="#000023"/>
      <path id="Path_4583" data-name="Path 4583" d="M33.086,12.356a.26.26,0,1,1-.26.26.259.259,0,0,1,.26-.26" fill="#000023"/>
      <path id="Path_4584" data-name="Path 4584" d="M32.974,13.317a.256.256,0,1,1-.255.255.255.255,0,0,1,.255-.255" fill="#000023"/>
      <path id="Path_4585" data-name="Path 4585" d="M33.449,14.236a.258.258,0,1,1-.258.258.258.258,0,0,1,.258-.258" fill="#000023"/>
      <path id="Path_4586" data-name="Path 4586" d="M34.111,13.615a.267.267,0,1,1-.266.266.266.266,0,0,1,.266-.266" fill="#000023"/>
      <path id="Path_4587" data-name="Path 4587" d="M34.4,14.646a.268.268,0,1,1-.267.267.267.267,0,0,1,.267-.267" fill="#000023"/>
      <path id="Path_4588" data-name="Path 4588" d="M34.521,15.775a.268.268,0,1,1-.267.267.267.267,0,0,1,.267-.267" fill="#000023"/>
      <path id="Path_4589" data-name="Path 4589" d="M33.7,15.3a.26.26,0,1,1-.26.26.259.259,0,0,1,.26-.26" fill="#000023"/>
      <path id="Path_4590" data-name="Path 4590" d="M32.8,15.9a.244.244,0,1,1-.243.243A.244.244,0,0,1,32.8,15.9" fill="#000023"/>
      <path id="Path_4591" data-name="Path 4591" d="M33.668,16.342a.257.257,0,1,1-.257.257.257.257,0,0,1,.257-.257" fill="#000023"/>
      <path id="Path_4592" data-name="Path 4592" d="M34.52,16.837a.267.267,0,1,1-.266.266.266.266,0,0,1,.266-.266" fill="#000023"/>
      <path id="Path_4593" data-name="Path 4593" d="M34.489,17.832a.266.266,0,1,1-.266.266.266.266,0,0,1,.266-.266" fill="#000023"/>
      <path id="Path_4594" data-name="Path 4594" d="M33.618,17.344a.256.256,0,1,1-.256.256.256.256,0,0,1,.256-.256" fill="#000023"/>
      <path id="Path_4595" data-name="Path 4595" d="M33.6,18.344a.257.257,0,1,1-.257.257.257.257,0,0,1,.257-.257" fill="#000023"/>
      <path id="Path_4596" data-name="Path 4596" d="M34.464,18.848a.267.267,0,1,1-.266.266.266.266,0,0,1,.266-.266" fill="#000023"/>
      <path id="Path_4597" data-name="Path 4597" d="M34.363,19.848a.268.268,0,1,1-.267.267.267.267,0,0,1,.267-.267" fill="#000023"/>
      <path id="Path_4598" data-name="Path 4598" d="M33.51,20.276a.26.26,0,1,1-.26.26.259.259,0,0,1,.26-.26" fill="#000023"/>
      <path id="Path_4599" data-name="Path 4599" d="M34.13,20.856a.268.268,0,1,1-.267.267.266.266,0,0,1,.267-.267" fill="#000023"/>
      <path id="Path_4600" data-name="Path 4600" d="M33.858,21.721a.266.266,0,1,1-.266.266.266.266,0,0,1,.266-.266" fill="#000023"/>
      <path id="Path_4601" data-name="Path 4601" d="M33.766,22.749a.263.263,0,1,1-.263.263.263.263,0,0,1,.263-.263" fill="#000023"/>
      <path id="Path_4602" data-name="Path 4602" d="M33.183,23.5a.266.266,0,1,1-.266.266.266.266,0,0,1,.266-.266" fill="#000023"/>
      <path id="Path_4603" data-name="Path 4603" d="M33.012,24.436a.268.268,0,1,1-.267.267.267.267,0,0,1,.267-.267" fill="#000023"/>
      <path id="Path_4604" data-name="Path 4604" d="M32.42,25.189a.266.266,0,1,1-.265.265.265.265,0,0,1,.265-.265" fill="#000023"/>
      <path id="Path_4605" data-name="Path 4605" d="M32.151,26.13a.268.268,0,1,1-.267.267.267.267,0,0,1,.267-.267" fill="#000023"/>
      <path id="Path_4606" data-name="Path 4606" d="M31.378,26.948a.267.267,0,1,1-.266.266.266.266,0,0,1,.266-.266" fill="#000023"/>
      <path id="Path_4607" data-name="Path 4607" d="M30.859,27.717a.267.267,0,1,1-.266.266.266.266,0,0,1,.266-.266" fill="#000023"/>
      <path id="Path_4608" data-name="Path 4608" d="M30.25,28.569a.266.266,0,1,1-.266.266.266.266,0,0,1,.266-.266" fill="#000023"/>
      <path id="Path_4609" data-name="Path 4609" d="M29.408,28.357a.26.26,0,1,1-.26.26.259.259,0,0,1,.26-.26" fill="#000023"/>
      <path id="Path_4610" data-name="Path 4610" d="M29.377,29.3a.266.266,0,1,1-.265.265.265.265,0,0,1,.265-.265" fill="#000023"/>
      <path id="Path_4611" data-name="Path 4611" d="M28.76,30.034a.266.266,0,1,1-.266.266.267.267,0,0,1,.266-.266" fill="#000023"/>
      <path id="Path_4612" data-name="Path 4612" d="M28.179,29.412a.258.258,0,1,1-.258.258.258.258,0,0,1,.258-.258" fill="#000023"/>
      <path id="Path_4613" data-name="Path 4613" d="M27.909,30.4a.266.266,0,1,1-.265.265.265.265,0,0,1,.265-.265" fill="#000023"/>
      <path id="Path_4614" data-name="Path 4614" d="M27.46,31.172a.268.268,0,1,1-.267.267.267.267,0,0,1,.267-.267" fill="#000023"/>
      <path id="Path_4615" data-name="Path 4615" d="M26.55,31.544a.266.266,0,1,1-.266.266.266.266,0,0,1,.266-.266" fill="#000023"/>
      <path id="Path_4616" data-name="Path 4616" d="M25.7,31.843a.265.265,0,1,1-.265.265.265.265,0,0,1,.265-.265" fill="#000023"/>
      <path id="Path_4617" data-name="Path 4617" d="M25.157,32.536a.268.268,0,1,1-.267.267.267.267,0,0,1,.267-.267" fill="#000023"/>
      <path id="Path_4618" data-name="Path 4618" d="M24.517,31.892a.258.258,0,1,1-.258.258.258.258,0,0,1,.258-.258" fill="#000023"/>
      <path id="Path_4619" data-name="Path 4619" d="M24.21,32.821a.266.266,0,1,1-.265.265.265.265,0,0,1,.265-.265" fill="#000023"/>
      <path id="Path_4620" data-name="Path 4620" d="M23.494,32.167a.256.256,0,1,1-.256.256.256.256,0,0,1,.256-.256" fill="#000023"/>
      <path id="Path_4621" data-name="Path 4621" d="M23.326,33.164a.266.266,0,1,1-.266.266.267.267,0,0,1,.266-.266" fill="#000023"/>
      <path id="Path_4622" data-name="Path 4622" d="M22.438,33.459a.267.267,0,1,1-.266.266.267.267,0,0,1,.266-.266" fill="#000023"/>
      <path id="Path_4623" data-name="Path 4623" d="M21.559,33.684a.267.267,0,1,1-.266.266.266.266,0,0,1,.266-.266" fill="#000023"/>
      <path id="Path_4624" data-name="Path 4624" d="M20.736,34.157a.256.256,0,1,1-.256.256.256.256,0,0,1,.256-.256" fill="#000023"/>
      <path id="Path_4625" data-name="Path 4625" d="M19.919,33.8a.265.265,0,1,1-.265.265.265.265,0,0,1,.265-.265" fill="#000023"/>
      <path id="Path_4626" data-name="Path 4626" d="M19.155,34.245a.267.267,0,1,1-.266.266.266.266,0,0,1,.266-.266" fill="#000023"/>
      <path id="Path_4627" data-name="Path 4627" d="M18.28,34.026a.265.265,0,1,1-.265.265.265.265,0,0,1,.265-.265" fill="#000023"/>
      <path id="Path_4628" data-name="Path 4628" d="M17.476,34.4a.265.265,0,1,1-.265.265.265.265,0,0,1,.265-.265" fill="#000023"/>
      <path id="Path_4629" data-name="Path 4629" d="M17.311,33.548a.259.259,0,1,1-.259.259.259.259,0,0,1,.259-.259" fill="#000023"/>
      <path id="Path_4630" data-name="Path 4630" d="M17.1,32.653a.244.244,0,1,1-.244.244.244.244,0,0,1,.244-.244" fill="#000023"/>
      <path id="Path_4631" data-name="Path 4631" d="M16.909,31.724a.219.219,0,1,1-.219.219.219.219,0,0,1,.219-.219" fill="#000023"/>
      <path id="Path_4632" data-name="Path 4632" d="M16.583,30.727a.184.184,0,1,1-.184.184.184.184,0,0,1,.184-.184" fill="#000023"/>
      <path id="Path_4633" data-name="Path 4633" d="M15.4,30.767a.192.192,0,1,1-.192.192.192.192,0,0,1,.192-.192" fill="#000023"/>
      <path id="Path_4634" data-name="Path 4634" d="M15.908,31.531a.217.217,0,1,1-.217.217.217.217,0,0,1,.217-.217" fill="#000023"/>
      <path id="Path_4635" data-name="Path 4635" d="M16.087,32.45a.239.239,0,1,1-.239.239.239.239,0,0,1,.239-.239" fill="#000023"/>
      <path id="Path_4636" data-name="Path 4636" d="M16.319,33.357a.257.257,0,1,1-.257.257.257.257,0,0,1,.257-.257" fill="#000023"/>
      <path id="Path_4637" data-name="Path 4637" d="M16.527,34.253a.267.267,0,1,1-.266.266.266.266,0,0,1,.266-.266" fill="#000023"/>
      <path id="Path_4638" data-name="Path 4638" d="M15.587,34.111a.267.267,0,1,1-.266.266.266.266,0,0,1,.266-.266" fill="#000023"/>
      <path id="Path_4639" data-name="Path 4639" d="M14.662,33.98a.267.267,0,1,1-.266.266.266.266,0,0,1,.266-.266" fill="#000023"/>
      <path id="Path_4640" data-name="Path 4640" d="M14.42,32.989a.256.256,0,1,1-.256.256.256.256,0,0,1,.256-.256" fill="#000023"/>
      <path id="Path_4641" data-name="Path 4641" d="M15.34,33.127a.255.255,0,1,1-.254.254.254.254,0,0,1,.254-.254" fill="#000023"/>
      <path id="Path_4642" data-name="Path 4642" d="M15.085,32.065a.234.234,0,1,1-.234.234.234.234,0,0,1,.234-.234" fill="#000023"/>
      <path id="Path_4643" data-name="Path 4643" d="M14.123,32.055a.239.239,0,1,1-.239.239.239.239,0,0,1,.239-.239" fill="#000023"/>
      <path id="Path_4644" data-name="Path 4644" d="M13.189,32.1a.244.244,0,1,1-.243.243.243.243,0,0,1,.243-.243" fill="#000023"/>
      <path id="Path_4645" data-name="Path 4645" d="M13.451,32.947a.258.258,0,1,1-.258.258.258.258,0,0,1,.258-.258" fill="#000023"/>
      <path id="Path_4646" data-name="Path 4646" d="M13.721,33.836a.267.267,0,1,1-.266.266.266.266,0,0,1,.266-.266" fill="#000023"/>
      <path id="Path_4647" data-name="Path 4647" d="M12.708,33.622a.266.266,0,1,1-.266.266.266.266,0,0,1,.266-.266" fill="#000023"/>
      <path id="Path_4648" data-name="Path 4648" d="M11.708,33.306a.267.267,0,1,1-.266.266.266.266,0,0,1,.266-.266" fill="#000023"/>
      <path id="Path_4649" data-name="Path 4649" d="M10.8,32.883a.267.267,0,1,1-.266.266.266.266,0,0,1,.266-.266" fill="#000023"/>
      <path id="Path_4650" data-name="Path 4650" d="M9.906,32.5a.267.267,0,1,1-.266.266.266.266,0,0,1,.266-.266" fill="#000023"/>
      <path id="Path_4651" data-name="Path 4651" d="M9.057,32.048a.267.267,0,1,1-.266.266.266.266,0,0,1,.266-.266" fill="#000023"/>
      <path id="Path_4652" data-name="Path 4652" d="M8.18,31.6a.267.267,0,1,1-.266.266A.266.266,0,0,1,8.18,31.6" fill="#000023"/>
      <path id="Path_4653" data-name="Path 4653" d="M8.107,30.556a.258.258,0,1,1-.258.258.258.258,0,0,1,.258-.258" fill="#000023"/>
      <path id="Path_4654" data-name="Path 4654" d="M7.262,31.085a.268.268,0,1,1-.267.267.267.267,0,0,1,.267-.267" fill="#000023"/>
      <path id="Path_4655" data-name="Path 4655" d="M7.2,30.164a.262.262,0,1,1-.262.262.262.262,0,0,1,.262-.262" fill="#000023"/>
      <path id="Path_4656" data-name="Path 4656" d="M6.757,29.317a.257.257,0,1,1-.256.256.256.256,0,0,1,.256-.256" fill="#000023"/>
      <path id="Path_4657" data-name="Path 4657" d="M6.307,30.323a.268.268,0,1,1-.267.267.267.267,0,0,1,.267-.267" fill="#000023"/>
      <path id="Path_4658" data-name="Path 4658" d="M5.7,29.548a.266.266,0,1,1-.266.266.266.266,0,0,1,.266-.266" fill="#000023"/>
      <path id="Path_4659" data-name="Path 4659" d="M5.89,28.594a.257.257,0,1,1-.257.257.257.257,0,0,1,.257-.257" fill="#000023"/>
      <path id="Path_4660" data-name="Path 4660" d="M4.906,28.868a.266.266,0,1,1-.266.266.266.266,0,0,1,.266-.266" fill="#000023"/>
      <path id="Path_4661" data-name="Path 4661" d="M4.242,28.089a.266.266,0,1,1-.266.266.266.266,0,0,1,.266-.266" fill="#000023"/>
      <path id="Path_4662" data-name="Path 4662" d="M3.681,27.283a.266.266,0,1,1-.266.266.266.266,0,0,1,.266-.266" fill="#000023"/>
      <path id="Path_4663" data-name="Path 4663" d="M3.047,26.548a.268.268,0,1,1-.267.267.267.267,0,0,1,.267-.267" fill="#000023"/>
      <path id="Path_4664" data-name="Path 4664" d="M2.629,25.667a.267.267,0,1,1-.266.266.266.266,0,0,1,.266-.266" fill="#000023"/>
      <path id="Path_4665" data-name="Path 4665" d="M1.969,24.958a.254.254,0,1,1-.254.254.254.254,0,0,1,.254-.254" fill="#000023"/>
      <path id="Path_4666" data-name="Path 4666" d="M2.837,24.6a.26.26,0,1,1-.26.26.259.259,0,0,1,.26-.26" fill="#000023"/>
      <path id="Path_4667" data-name="Path 4667" d="M2.942,23.592a.252.252,0,1,1-.252.252.252.252,0,0,1,.252-.252" fill="#000023"/>
      <path id="Path_4668" data-name="Path 4668" d="M3.8,24.324a.241.241,0,1,1-.241.241.241.241,0,0,1,.241-.241" fill="#000023"/>
      <path id="Path_4669" data-name="Path 4669" d="M4.831,24.05a.214.214,0,1,1-.215.214.214.214,0,0,1,.215-.214" fill="#000023"/>
      <path id="Path_4670" data-name="Path 4670" d="M4.5,25.131a.236.236,0,1,1-.236.236.236.236,0,0,1,.236-.236" fill="#000023"/>
      <path id="Path_4671" data-name="Path 4671" d="M3.52,25.4a.256.256,0,1,1-.256.256A.256.256,0,0,1,3.52,25.4" fill="#000023"/>
      <path id="Path_4672" data-name="Path 4672" d="M4.062,26.222a.256.256,0,1,1-.255.255.255.255,0,0,1,.255-.255" fill="#000023"/>
      <path id="Path_4673" data-name="Path 4673" d="M4.681,27.011a.256.256,0,1,1-.255.255.255.255,0,0,1,.255-.255" fill="#000023"/>
      <path id="Path_4674" data-name="Path 4674" d="M5.259,27.814A.257.257,0,1,1,5,28.071a.257.257,0,0,1,.257-.257" fill="#000023"/>
      <path id="Path_4675" data-name="Path 4675" d="M6.277,27.562a.239.239,0,1,1-.239.239.239.239,0,0,1,.239-.239" fill="#000023"/>
      <path id="Path_4676" data-name="Path 4676" d="M6.813,28.367a.242.242,0,1,1-.242.242.242.242,0,0,1,.242-.242" fill="#000023"/>
      <path id="Path_4677" data-name="Path 4677" d="M7.731,28.576a.232.232,0,1,1-.231.231.231.231,0,0,1,.231-.231" fill="#000023"/>
      <path id="Path_4678" data-name="Path 4678" d="M7.4,27.539a.217.217,0,1,1-.217.217.217.217,0,0,1,.217-.217" fill="#000023"/>
      <path id="Path_4679" data-name="Path 4679" d="M6.862,26.631a.209.209,0,1,1-.209.209.209.209,0,0,1,.209-.209" fill="#000023"/>
      <path id="Path_4680" data-name="Path 4680" d="M5.713,26.752a.237.237,0,1,1-.237.237.237.237,0,0,1,.237-.237" fill="#000023"/>
      <path id="Path_4681" data-name="Path 4681" d="M5.11,25.95a.236.236,0,1,1-.236.236.236.236,0,0,1,.236-.236" fill="#000023"/>
      <path id="Path_4682" data-name="Path 4682" d="M6.243,25.736a.207.207,0,1,1-.207.207.207.207,0,0,1,.207-.207" fill="#000023"/>
      <path id="Path_4683" data-name="Path 4683" d="M5.574,24.889a.207.207,0,1,1-.207.207.207.207,0,0,1,.207-.207" fill="#000023"/>
      <path id="Path_4684" data-name="Path 4684" d="M6.776,24.67a.166.166,0,1,1-.166.166.166.166,0,0,1,.166-.166" fill="#000023"/>
      <path id="Path_4685" data-name="Path 4685" d="M5.96,23.787a.176.176,0,1,1-.175.175.175.175,0,0,1,.175-.175" fill="#000023"/>
      <path id="Path_4686" data-name="Path 4686" d="M6.275,22.63a.145.145,0,1,1-.145.145.145.145,0,0,1,.145-.145" fill="#000023"/>
      <path id="Path_4687" data-name="Path 4687" d="M7.245,23.475a.131.131,0,1,1-.13.13.13.13,0,0,1,.13-.13" fill="#000023"/>
      <path id="Path_4688" data-name="Path 4688" d="M8.679,23.293a.088.088,0,1,1-.088.088.087.087,0,0,1,.088-.088" fill="#000023"/>
      <path id="Path_4689" data-name="Path 4689" d="M7.653,21.956a.1.1,0,1,1-.095.1.095.095,0,0,1,.095-.1" fill="#000023"/>
      <path id="Path_4690" data-name="Path 4690" d="M6.964,20.232a.1.1,0,1,1-.1.1.1.1,0,0,1,.1-.1" fill="#000023"/>
      <path id="Path_4691" data-name="Path 4691" d="M6.8,18.668a.092.092,0,1,1-.092.092.092.092,0,0,1,.092-.092" fill="#000023"/>
      <path id="Path_4692" data-name="Path 4692" d="M5.555,19.316a.134.134,0,1,1-.134.134.134.134,0,0,1,.134-.134" fill="#000023"/>
      <path id="Path_4693" data-name="Path 4693" d="M5.432,20.536a.149.149,0,1,1-.149.149.149.149,0,0,1,.149-.149" fill="#000023"/>
      <path id="Path_4694" data-name="Path 4694" d="M4.36,19.837a.18.18,0,1,1-.18.18.181.181,0,0,1,.18-.18" fill="#000023"/>
      <path id="Path_4695" data-name="Path 4695" d="M4.382,18.63a.174.174,0,1,1-.174.174.174.174,0,0,1,.174-.174" fill="#000023"/>
      <path id="Path_4696" data-name="Path 4696" d="M3.324,19.157a.211.211,0,1,1-.21.21.21.21,0,0,1,.21-.21" fill="#000023"/>
      <path id="Path_4697" data-name="Path 4697" d="M3.287,18.012a.21.21,0,1,1-.209.209.209.209,0,0,1,.209-.209" fill="#000023"/>
      <path id="Path_4698" data-name="Path 4698" d="M2.3,18.509a.238.238,0,1,1-.238.238.238.238,0,0,1,.238-.238" fill="#000023"/>
      <path id="Path_4699" data-name="Path 4699" d="M2.364,19.617a.239.239,0,1,1-.239.239.239.239,0,0,1,.239-.239" fill="#000023"/>
      <path id="Path_4700" data-name="Path 4700" d="M3.335,20.306a.217.217,0,1,1-.217.217.217.217,0,0,1,.217-.217" fill="#000023"/>
      <path id="Path_4701" data-name="Path 4701" d="M4.287,21.012a.194.194,0,1,1-.194.194.194.194,0,0,1,.194-.194" fill="#000023"/>
      <path id="Path_4702" data-name="Path 4702" d="M5.215,21.8a.168.168,0,1,1-.168.168.168.168,0,0,1,.168-.168" fill="#000023"/>
      <path id="Path_4703" data-name="Path 4703" d="M6.361,21.406a.126.126,0,1,1-.126.126.126.126,0,0,1,.126-.126" fill="#000023"/>
      <path id="Path_4704" data-name="Path 4704" d="M5.071,22.949a.19.19,0,1,1-.19.19.19.19,0,0,1,.19-.19" fill="#000023"/>
      <path id="Path_4705" data-name="Path 4705" d="M3.988,23.27a.226.226,0,1,1-.226.226.226.226,0,0,1,.226-.226" fill="#000023"/>
      <path id="Path_4706" data-name="Path 4706" d="M4.149,22.168a.21.21,0,1,1-.209.209.209.209,0,0,1,.209-.209" fill="#000023"/>
      <path id="Path_4707" data-name="Path 4707" d="M3.254,21.443a.227.227,0,1,1-.227.227.227.227,0,0,1,.227-.227" fill="#000023"/>
      <path id="Path_4708" data-name="Path 4708" d="M2.39,20.726a.244.244,0,1,1-.243.243.243.243,0,0,1,.243-.243" fill="#000023"/>
      <path id="Path_4709" data-name="Path 4709" d="M1.453,20.029a.257.257,0,1,1-.257.257.257.257,0,0,1,.257-.257" fill="#000023"/>
      <path id="Path_4710" data-name="Path 4710" d="M1.512,21.12a.26.26,0,1,1-.26.26.259.259,0,0,1,.26-.26" fill="#000023"/>
      <path id="Path_4711" data-name="Path 4711" d="M2.262,21.851a.252.252,0,1,1-.252.252.252.252,0,0,1,.252-.252" fill="#000023"/>
      <path id="Path_4712" data-name="Path 4712" d="M3.132,22.536a.24.24,0,1,1-.24.24.24.24,0,0,1,.24-.24" fill="#000023"/>
      <path id="Path_4713" data-name="Path 4713" d="M2.143,22.905a.259.259,0,1,1-.259.259.259.259,0,0,1,.259-.259" fill="#000023"/>
      <path id="Path_4714" data-name="Path 4714" d="M1.906,23.972a.266.266,0,1,1-.265.265.265.265,0,0,1,.265-.265" fill="#000023"/>
      <path id="Path_4715" data-name="Path 4715" d="M1.193,23.276a.261.261,0,1,1-.261.261.261.261,0,0,1,.261-.261" fill="#000023"/>
      <path id="Path_4716" data-name="Path 4716" d="M1.262,22.269A.266.266,0,1,1,1,22.534a.265.265,0,0,1,.265-.265" fill="#000023"/>
      <path id="Path_4717" data-name="Path 4717" d="M.7,21.508a.265.265,0,1,1-.265.265A.265.265,0,0,1,.7,21.508" fill="#000023"/>
      <path id="Path_4718" data-name="Path 4718" d="M.6,20.482a.268.268,0,1,1-.267.267A.267.267,0,0,1,.6,20.482" fill="#000023"/>
      <path id="Path_4719" data-name="Path 4719" d="M.435,19.464a.266.266,0,1,1-.266.266.266.266,0,0,1,.266-.266" fill="#000023"/>
      <path id="Path_4720" data-name="Path 4720" d="M1.351,18.967a.256.256,0,1,1-.256.256.256.256,0,0,1,.256-.256" fill="#000023"/>
      <path id="Path_4721" data-name="Path 4721" d="M1.267,17.9a.256.256,0,1,1-.256.256.256.256,0,0,1,.256-.256" fill="#000023"/>
      <path id="Path_4722" data-name="Path 4722" d="M.32,18.413a.268.268,0,1,1-.267.267.267.267,0,0,1,.267-.267" fill="#000023"/>
      <path id="Path_4723" data-name="Path 4723" d="M.3,17.324a.267.267,0,1,1-.266.266A.266.266,0,0,1,.3,17.324" fill="#000023"/>
      <path id="Path_4724" data-name="Path 4724" d="M1.185,16.8a.257.257,0,1,1-.257.257.257.257,0,0,1,.257-.257" fill="#000023"/>
      <path id="Path_4725" data-name="Path 4725" d="M.267,16.156A.268.268,0,1,1,0,16.423a.267.267,0,0,1,.267-.267" fill="#000023"/>
      <path id="Path_4726" data-name="Path 4726" d="M.358,14.928a.268.268,0,1,1-.267.267.267.267,0,0,1,.267-.267" fill="#000023"/>
      <path id="Path_4727" data-name="Path 4727" d="M1.292,14.464a.259.259,0,1,1-.259.259.259.259,0,0,1,.259-.259" fill="#000023"/>
      <path id="Path_4728" data-name="Path 4728" d="M1.153,15.654a.259.259,0,1,1-.259.259.258.258,0,0,1,.259-.259" fill="#000023"/>
      <path id="Path_4729" data-name="Path 4729" d="M2.112,16.332a.241.241,0,1,1-.241.241.241.241,0,0,1,.241-.241" fill="#000023"/>
      <path id="Path_4730" data-name="Path 4730" d="M2.214,17.417a.239.239,0,1,1-.239.239.239.239,0,0,1,.239-.239" fill="#000023"/>
      <path id="Path_4731" data-name="Path 4731" d="M3.19,16.894a.212.212,0,1,1-.212.212.212.212,0,0,1,.212-.212" fill="#000023"/>
      <path id="Path_4732" data-name="Path 4732" d="M4.307,17.378a.171.171,0,1,1-.171.171.171.171,0,0,1,.171-.171" fill="#000023"/>
      <path id="Path_4733" data-name="Path 4733" d="M4.186,16.158a.179.179,0,1,1-.179.179.179.179,0,0,1,.179-.179" fill="#000023"/>
      <path id="Path_4734" data-name="Path 4734" d="M3.079,15.82a.217.217,0,1,1-.217.217.217.217,0,0,1,.217-.217" fill="#000023"/>
      <path id="Path_4735" data-name="Path 4735" d="M2.059,15.232a.245.245,0,1,1-.245.245.245.245,0,0,1,.245-.245" fill="#000023"/>
      <path id="Path_4736" data-name="Path 4736" d="M2.938,14.785a.226.226,0,1,1-.227.226.226.226,0,0,1,.227-.226" fill="#000023"/>
      <path id="Path_4737" data-name="Path 4737" d="M2.245,14.045A.244.244,0,1,1,2,14.288a.243.243,0,0,1,.243-.243" fill="#000023"/>
      <path id="Path_4738" data-name="Path 4738" d="M1.561,13.281a.259.259,0,1,1-.259.259.259.259,0,0,1,.259-.259" fill="#000023"/>
      <path id="Path_4739" data-name="Path 4739" d="M.575,13.7a.268.268,0,1,1-.267.267A.267.267,0,0,1,.575,13.7" fill="#000023"/>
      <path id="Path_4740" data-name="Path 4740" d="M.878,12.523a.268.268,0,1,1-.267.267.267.267,0,0,1,.267-.267" fill="#000023"/>
      <path id="Path_4741" data-name="Path 4741" d="M1.211,11.411a.268.268,0,1,1-.267.267.267.267,0,0,1,.267-.267" fill="#000023"/>
      <path id="Path_4742" data-name="Path 4742" d="M1.949,12.2a.258.258,0,1,1-.258.258.258.258,0,0,1,.258-.258" fill="#000023"/>
      <path id="Path_4743" data-name="Path 4743" d="M2.657,13.026a.242.242,0,1,1-.242.242.242.242,0,0,1,.242-.242" fill="#000023"/>
      <path id="Path_4744" data-name="Path 4744" d="M3.081,12.023a.239.239,0,1,1-.239.239.239.239,0,0,1,.239-.239" fill="#000023"/>
      <path id="Path_4745" data-name="Path 4745" d="M3.482,11a.24.24,0,1,1-.24.24.24.24,0,0,1,.24-.24" fill="#000023"/>
      <path id="Path_4746" data-name="Path 4746" d="M4.264,11.874a.211.211,0,1,1-.211.211.211.211,0,0,1,.211-.211" fill="#000023"/>
      <path id="Path_4747" data-name="Path 4747" d="M3.842,12.9a.214.214,0,1,1-.214.214.214.214,0,0,1,.214-.214" fill="#000023"/>
      <path id="Path_4748" data-name="Path 4748" d="M3.4,13.875a.216.216,0,1,1-.216.216.216.216,0,0,1,.216-.216" fill="#000023"/>
      <path id="Path_4749" data-name="Path 4749" d="M4.566,13.979a.176.176,0,1,1-.175.175.175.175,0,0,1,.175-.175" fill="#000023"/>
      <path id="Path_4750" data-name="Path 4750" d="M5.057,12.9a.172.172,0,1,1-.172.172.172.172,0,0,1,.172-.172" fill="#000023"/>
      <path id="Path_4751" data-name="Path 4751" d="M5.487,11.78a.173.173,0,1,1-.173.173.173.173,0,0,1,.173-.173" fill="#000023"/>
      <path id="Path_4752" data-name="Path 4752" d="M6.364,12.81a.131.131,0,1,1-.131.131.131.131,0,0,1,.131-.131" fill="#000023"/>
      <path id="Path_4753" data-name="Path 4753" d="M5.841,14.082a.133.133,0,1,1-.133.133.133.133,0,0,1,.133-.133" fill="#000023"/>
      <path id="Path_4754" data-name="Path 4754" d="M5.15,15.233A.149.149,0,1,1,5,15.382a.149.149,0,0,1,.149-.149" fill="#000023"/>
      <path id="Path_4755" data-name="Path 4755" d="M3.973,14.992a.191.191,0,1,1-.191.191.192.192,0,0,1,.191-.191" fill="#000023"/>
      <path id="Path_4756" data-name="Path 4756" d="M5.375,16.547a.135.135,0,1,1-.135.135.134.134,0,0,1,.135-.135" fill="#000023"/>
      <path id="Path_4757" data-name="Path 4757" d="M5.469,17.938a.131.131,0,1,1-.131.131.131.131,0,0,1,.131-.131" fill="#000023"/>
      <path id="Path_4758" data-name="Path 4758" d="M6.7,17.049a.095.095,0,1,1-.094.094.094.094,0,0,1,.094-.094" fill="#000023"/>
      <path id="Path_4759" data-name="Path 4759" d="M6.558,15.492a.1.1,0,1,1-.1.1.1.1,0,0,1,.1-.1" fill="#000023"/>
      <path id="Path_4760" data-name="Path 4760" d="M7.319,14.078a.092.092,0,1,1-.092.092.092.092,0,0,1,.092-.092" fill="#000023"/>
      <path id="Path_4761" data-name="Path 4761" d="M7.832,12.464a.095.095,0,1,1-.093.094.093.093,0,0,1,.093-.094" fill="#000023"/>
      <path id="Path_4762" data-name="Path 4762" d="M8.51,11.024a.1.1,0,1,1-.1.1.1.1,0,0,1,.1-.1" fill="#000023"/>
      <path id="Path_4763" data-name="Path 4763" d="M7.242,10.3a.145.145,0,1,1-.145.145.145.145,0,0,1,.145-.145" fill="#000023"/>
      <path id="Path_4764" data-name="Path 4764" d="M6.807,11.49a.136.136,0,1,1-.136.136.136.136,0,0,1,.136-.136" fill="#000023"/>
      <path id="Path_4765" data-name="Path 4765" d="M5.819,10.639a.18.18,0,1,1-.18.18.181.181,0,0,1,.18-.18" fill="#000023"/>
      <path id="Path_4766" data-name="Path 4766" d="M4.693,10.815a.212.212,0,1,1-.212.212.212.212,0,0,1,.212-.212" fill="#000023"/>
      <path id="Path_4767" data-name="Path 4767" d="M3.967,10.07a.238.238,0,1,1-.238.238.239.239,0,0,1,.238-.238" fill="#000023"/>
      <path id="Path_4768" data-name="Path 4768" d="M2.85,10.025a.258.258,0,1,1-.258.258.258.258,0,0,1,.258-.258" fill="#000023"/>
      <path id="Path_4769" data-name="Path 4769" d="M2.392,11.146a.257.257,0,1,1-.257.257.257.257,0,0,1,.257-.257" fill="#000023"/>
      <path id="Path_4770" data-name="Path 4770" d="M1.686,10.441a.267.267,0,1,1-.266.266.266.266,0,0,1,.266-.266" fill="#000023"/>
      <path id="Path_4771" data-name="Path 4771" d="M1.977,9.465a.268.268,0,1,1-.267.267.267.267,0,0,1,.267-.267" fill="#000023"/>
      <path id="Path_4772" data-name="Path 4772" d="M2.7,8.793a.266.266,0,1,1-.265.265A.265.265,0,0,1,2.7,8.793" fill="#000023"/>
      <path id="Path_4773" data-name="Path 4773" d="M2.8,7.8a.246.246,0,1,1-.246.246A.246.246,0,0,1,2.8,7.8" fill="#000023"/>
      <path id="Path_4774" data-name="Path 4774" d="M3.745,8.107a.26.26,0,1,1-.26.26.259.259,0,0,1,.26-.26" fill="#000023"/>
      <path id="Path_4775" data-name="Path 4775" d="M3.753,9.137A.253.253,0,1,1,3.5,9.39a.253.253,0,0,1,.253-.253" fill="#000023"/>
      <path id="Path_4776" data-name="Path 4776" d="M4.744,8.493a.242.242,0,1,1-.242.242.242.242,0,0,1,.242-.242" fill="#000023"/>
      <path id="Path_4777" data-name="Path 4777" d="M4.995,9.6a.223.223,0,1,1-.223.223A.223.223,0,0,1,4.995,9.6" fill="#000023"/>
      <path id="Path_4778" data-name="Path 4778" d="M6.181,9.651a.187.187,0,1,1-.186.186.186.186,0,0,1,.186-.186" fill="#000023"/>
      <path id="Path_4779" data-name="Path 4779" d="M7.095,8.988a.176.176,0,1,1-.176.175.175.175,0,0,1,.176-.175" fill="#000023"/>
      <path id="Path_4780" data-name="Path 4780" d="M7.988,8.21a.171.171,0,1,1-.171.171.171.171,0,0,1,.171-.171" fill="#000023"/>
      <path id="Path_4781" data-name="Path 4781" d="M8.355,9.485a.132.132,0,1,1-.132.132.132.132,0,0,1,.132-.132" fill="#000023"/>
      <path id="Path_4782" data-name="Path 4782" d="M9.83,9.838a.092.092,0,1,1-.092.092.092.092,0,0,1,.092-.092" fill="#000023"/>
      <path id="Path_4783" data-name="Path 4783" d="M11.2,8.6a.093.093,0,1,1-.093.093A.093.093,0,0,1,11.2,8.6" fill="#000023"/>
      <path id="Path_4784" data-name="Path 4784" d="M10.24,7.461a.141.141,0,1,1-.14.14.14.14,0,0,1,.14-.14" fill="#000023"/>
      <path id="Path_4785" data-name="Path 4785" d="M9.4,8.472a.131.131,0,1,1-.13.13.13.13,0,0,1,.13-.13" fill="#000023"/>
      <path id="Path_4786" data-name="Path 4786" d="M8.742,7.325a.177.177,0,1,1-.176.176.176.176,0,0,1,.176-.176" fill="#000023"/>
      <path id="Path_4787" data-name="Path 4787" d="M9.453,6.525a.183.183,0,1,1-.183.183.183.183,0,0,1,.183-.183" fill="#000023"/>
      <path id="Path_4788" data-name="Path 4788" d="M9.424,5.422a.213.213,0,1,1-.213.213.213.213,0,0,1,.213-.213" fill="#000023"/>
      <path id="Path_4789" data-name="Path 4789" d="M10.419,4.822a.211.211,0,1,1-.211.211.211.211,0,0,1,.211-.211" fill="#000023"/>
      <path id="Path_4790" data-name="Path 4790" d="M10.513,6.066a.174.174,0,1,1-.174.174.174.174,0,0,1,.174-.174" fill="#000023"/>
      <path id="Path_4791" data-name="Path 4791" d="M11.486,6.92a.133.133,0,1,1-.133.133.133.133,0,0,1,.133-.133" fill="#000023"/>
      <path id="Path_4792" data-name="Path 4792" d="M12.776,7.619a.095.095,0,1,1-.094.094.094.094,0,0,1,.094-.094" fill="#000023"/>
      <path id="Path_4793" data-name="Path 4793" d="M11.471,5.359a.179.179,0,1,1-.179.179.179.179,0,0,1,.179-.179" fill="#000023"/>
      <path id="Path_4794" data-name="Path 4794" d="M12.468,5.959a.145.145,0,1,1-.145.145.145.145,0,0,1,.145-.145" fill="#000023"/>
      <path id="Path_4795" data-name="Path 4795" d="M13.638,6.361a.12.12,0,1,1-.119.119.119.119,0,0,1,.119-.119" fill="#000023"/>
      <path id="Path_4796" data-name="Path 4796" d="M14.8,7.213a.086.086,0,1,1-.086.086.086.086,0,0,1,.086-.086" fill="#000023"/>
      <path id="Path_4797" data-name="Path 4797" d="M15.992,6.213a.108.108,0,1,1-.107.107.107.107,0,0,1,.107-.107" fill="#000023"/>
      <path id="Path_4798" data-name="Path 4798" d="M17.494,6.609A.095.095,0,1,1,17.4,6.7a.094.094,0,0,1,.094-.094" fill="#000023"/>
      <path id="Path_4799" data-name="Path 4799" d="M18.259,5.374a.132.132,0,1,1-.132.132.132.132,0,0,1,.132-.132" fill="#000023"/>
      <path id="Path_4800" data-name="Path 4800" d="M18.778,4.181a.174.174,0,1,1-.174.174.174.174,0,0,1,.174-.174" fill="#000023"/>
      <path id="Path_4801" data-name="Path 4801" d="M17.609,4.076a.174.174,0,1,1-.174.174.174.174,0,0,1,.174-.174" fill="#000023"/>
      <path id="Path_4802" data-name="Path 4802" d="M16.884,5.114a.141.141,0,1,1-.14.14.14.14,0,0,1,.14-.14" fill="#000023"/>
      <path id="Path_4803" data-name="Path 4803" d="M15.618,4.682a.157.157,0,1,1-.157.157.157.157,0,0,1,.157-.157" fill="#000023"/>
      <path id="Path_4804" data-name="Path 4804" d="M14.7,5.525a.136.136,0,1,1-.136.136.136.136,0,0,1,.136-.136" fill="#000023"/>
      <path id="Path_4805" data-name="Path 4805" d="M14.439,4.143a.184.184,0,1,1-.184.184.184.184,0,0,1,.184-.184" fill="#000023"/>
      <path id="Path_4806" data-name="Path 4806" d="M16.419,3.783a.186.186,0,1,1-.185.185.185.185,0,0,1,.185-.185" fill="#000023"/>
      <path id="Path_4807" data-name="Path 4807" d="M17.164,2.9a.215.215,0,1,1-.215.215.215.215,0,0,1,.215-.215" fill="#000023"/>
      <path id="Path_4808" data-name="Path 4808" d="M18.244,3.007a.213.213,0,1,1-.213.213.213.213,0,0,1,.213-.213" fill="#000023"/>
      <path id="Path_4809" data-name="Path 4809" d="M19.318,3.057a.213.213,0,1,1-.213.213.213.213,0,0,1,.213-.213" fill="#000023"/>
      <path id="Path_4810" data-name="Path 4810" d="M20.417,3.039a.219.219,0,1,1-.219.219.219.219,0,0,1,.219-.219" fill="#000023"/>
      <path id="Path_4811" data-name="Path 4811" d="M20.993,2.192a.242.242,0,1,1-.242.242.242.242,0,0,1,.242-.242" fill="#000023"/>
      <path id="Path_4812" data-name="Path 4812" d="M21.567,1.417a.258.258,0,1,1-.258.258.258.258,0,0,1,.258-.258" fill="#000023"/>
      <path id="Path_4813" data-name="Path 4813" d="M22.13.669a.267.267,0,1,1-.266.266A.266.266,0,0,1,22.13.669" fill="#000023"/>
      <path id="Path_4814" data-name="Path 4814" d="M21.08.421a.268.268,0,1,1-.267.267A.267.267,0,0,1,21.08.421" fill="#000023"/>
      <path id="Path_4815" data-name="Path 4815" d="M20.471,1.205a.257.257,0,1,1-.257.257.257.257,0,0,1,.257-.257" fill="#000023"/>
      <path id="Path_4816" data-name="Path 4816" d="M19.876,2.06a.241.241,0,1,1-.241.241.241.241,0,0,1,.241-.241" fill="#000023"/>
      <path id="Path_4817" data-name="Path 4817" d="M18.815,1.99a.24.24,0,1,1-.24.24.24.24,0,0,1,.24-.24" fill="#000023"/>
      <path id="Path_4818" data-name="Path 4818" d="M17.783,1.906a.241.241,0,1,1-.241.241.241.241,0,0,1,.241-.241" fill="#000023"/>
      <path id="Path_4819" data-name="Path 4819" d="M19.371,1.058a.257.257,0,1,1-.257.257.257.257,0,0,1,.257-.257" fill="#000023"/>
      <path id="Path_4820" data-name="Path 4820" d="M19.991.225a.267.267,0,1,1-.266.266.266.266,0,0,1,.266-.266" fill="#000023"/>
      <path id="Path_4821" data-name="Path 4821" d="M18.885.056a.268.268,0,1,1-.267.267.267.267,0,0,1,.267-.267" fill="#000023"/>
      <path id="Path_4822" data-name="Path 4822" d="M18.3.947a.257.257,0,1,1-.257.257A.257.257,0,0,1,18.3.947" fill="#000023"/>
      <path id="Path_4823" data-name="Path 4823" d="M17.736,0a.268.268,0,1,1-.267.267A.267.267,0,0,1,17.736,0" fill="#000023"/>
      <path id="Path_4824" data-name="Path 4824" d="M17.182.913a.258.258,0,1,1-.258.258.258.258,0,0,1,.258-.258" fill="#000023"/>
      <path id="Path_4825" data-name="Path 4825" d="M16.577.085a.267.267,0,1,1-.266.266.266.266,0,0,1,.266-.266" fill="#000023"/>
      <path id="Path_4826" data-name="Path 4826" d="M15.506.152a.267.267,0,1,1-.266.266.266.266,0,0,1,.266-.266" fill="#000023"/>
      <path id="Path_4827" data-name="Path 4827" d="M16.037,1.166a.256.256,0,1,1-.255.255.255.255,0,0,1,.255-.255" fill="#000023"/>
      <path id="Path_4828" data-name="Path 4828" d="M16.757,1.853a.241.241,0,1,1-.241.241.241.241,0,0,1,.241-.241" fill="#000023"/>
      <path id="Path_4829" data-name="Path 4829" d="M16.063,2.576a.225.225,0,1,1-.225.225.225.225,0,0,1,.225-.225" fill="#000023"/>
      <path id="Path_4830" data-name="Path 4830" d="M15.153,2.106a.238.238,0,1,1-.238.238.238.238,0,0,1,.238-.238" fill="#000023"/>
      <path id="Path_4831" data-name="Path 4831" d="M15.284,3.367a.206.206,0,1,1-.206.206.206.206,0,0,1,.206-.206" fill="#000023"/>
      <path id="Path_4832" data-name="Path 4832" d="M14.26,2.817a.227.227,0,1,1-.227.227.227.227,0,0,1,.227-.227" fill="#000023"/>
      <path id="Path_4833" data-name="Path 4833" d="M13.231,2.542a.239.239,0,1,1-.239.239.239.239,0,0,1,.239-.239" fill="#000023"/>
      <path id="Path_4834" data-name="Path 4834" d="M12.2,2.065a.255.255,0,1,1-.254.254.254.254,0,0,1,.254-.254" fill="#000023"/>
      <path id="Path_4835" data-name="Path 4835" d="M13.092,1.5a.258.258,0,1,1-.258.258.259.259,0,0,1,.258-.258" fill="#000023"/>
      <path id="Path_4836" data-name="Path 4836" d="M14.1,1.574a.253.253,0,1,1-.253.253.253.253,0,0,1,.253-.253" fill="#000023"/>
      <path id="Path_4837" data-name="Path 4837" d="M15.022,1.081a.258.258,0,1,1-.258.258.258.258,0,0,1,.258-.258" fill="#000023"/>
      <path id="Path_4838" data-name="Path 4838" d="M14.4.308a.267.267,0,1,1-.266.266A.266.266,0,0,1,14.4.308" fill="#000023"/>
      <path id="Path_4839" data-name="Path 4839" d="M13.408.513a.267.267,0,1,1-.266.266.266.266,0,0,1,.266-.266" fill="#000023"/>
      <path id="Path_4840" data-name="Path 4840" d="M12.354.806a.268.268,0,1,1-.267.267.267.267,0,0,1,.267-.267" fill="#000023"/>
      <path id="Path_4841" data-name="Path 4841" d="M11.4,1.115a.268.268,0,1,1-.267.267.268.268,0,0,1,.267-.267" fill="#000023"/>
      <path id="Path_4842" data-name="Path 4842" d="M11.172,2.066a.259.259,0,1,1-.259.259.259.259,0,0,1,.259-.259" fill="#000023"/>
      <path id="Path_4843" data-name="Path 4843" d="M11.317,3.03a.243.243,0,1,1-.242.242.242.242,0,0,1,.242-.242" fill="#000023"/>
      <path id="Path_4844" data-name="Path 4844" d="M12.329,3.276A.228.228,0,1,1,12.1,3.5a.228.228,0,0,1,.228-.228" fill="#000023"/>
      <path id="Path_4845" data-name="Path 4845" d="M13.375,3.7a.209.209,0,1,1-.208.208.208.208,0,0,1,.208-.208" fill="#000023"/>
      <path id="Path_4846" data-name="Path 4846" d="M13.492,5a.165.165,0,1,1-.164.164A.164.164,0,0,1,13.492,5" fill="#000023"/>
      <path id="Path_4847" data-name="Path 4847" d="M12.429,4.522a.192.192,0,1,1-.192.192.192.192,0,0,1,.192-.192" fill="#000023"/>
      <path id="Path_4848" data-name="Path 4848" d="M11.387,4.129a.217.217,0,1,1-.217.217.217.217,0,0,1,.217-.217" fill="#000023"/>
      <path id="Path_4849" data-name="Path 4849" d="M10.366,3.647a.24.24,0,1,1-.24.24.24.24,0,0,1,.24-.24" fill="#000023"/>
      <path id="Path_4850" data-name="Path 4850" d="M9.349,3.118a.257.257,0,1,1-.257.257.257.257,0,0,1,.257-.257" fill="#000023"/>
      <path id="Path_4851" data-name="Path 4851" d="M8.448,3.685a.258.258,0,1,1-.258.258.258.258,0,0,1,.258-.258" fill="#000023"/>
      <path id="Path_4852" data-name="Path 4852" d="M9.448,4.229a.24.24,0,1,1-.24.24.24.24,0,0,1,.24-.24" fill="#000023"/>
      <path id="Path_4853" data-name="Path 4853" d="M8.542,4.81a.239.239,0,1,1-.239.239.239.239,0,0,1,.239-.239" fill="#000023"/>
      <path id="Path_4854" data-name="Path 4854" d="M8.361,6.089a.216.216,0,1,1-.216.216.216.216,0,0,1,.216-.216" fill="#000023"/>
      <path id="Path_4855" data-name="Path 4855" d="M7.569,7.022a.211.211,0,1,1-.211.211.211.211,0,0,1,.211-.211" fill="#000023"/>
      <path id="Path_4856" data-name="Path 4856" d="M7.062,6.034a.237.237,0,1,1-.237.237.237.237,0,0,1,.237-.237" fill="#000023"/>
      <path id="Path_4857" data-name="Path 4857" d="M6.35,6.792a.237.237,0,1,1-.237.237.237.237,0,0,1,.237-.237" fill="#000023"/>
      <path id="Path_4858" data-name="Path 4858" d="M6.752,7.849a.211.211,0,1,1-.21.21.21.21,0,0,1,.21-.21" fill="#000023"/>
      <path id="Path_4859" data-name="Path 4859" d="M5.853,8.635a.218.218,0,1,1-.218.218.218.218,0,0,1,.218-.218" fill="#000023"/>
      <path id="Path_4860" data-name="Path 4860" d="M5.583,7.6a.239.239,0,1,1-.238.239A.239.239,0,0,1,5.583,7.6" fill="#000023"/>
      <path id="Path_4861" data-name="Path 4861" d="M4.566,7.345A.256.256,0,1,1,4.31,7.6a.256.256,0,0,1,.256-.256" fill="#000023"/>
      <path id="Path_4862" data-name="Path 4862" d="M3.608,7.028a.268.268,0,1,1-.267.267.267.267,0,0,1,.267-.267" fill="#000023"/>
      <path id="Path_4863" data-name="Path 4863" d="M4.247,6.217a.268.268,0,1,1-.267.267.267.267,0,0,1,.267-.267" fill="#000023"/>
      <path id="Path_4864" data-name="Path 4864" d="M5.276,6.5a.256.256,0,1,1-.256.256A.256.256,0,0,1,5.276,6.5" fill="#000023"/>
      <path id="Path_4865" data-name="Path 4865" d="M5.984,5.691a.257.257,0,1,1-.257.257.256.256,0,0,1,.257-.257" fill="#000023"/>
      <path id="Path_4866" data-name="Path 4866" d="M4.957,5.412a.267.267,0,1,1-.266.266.266.266,0,0,1,.266-.266" fill="#000023"/>
      <path id="Path_4867" data-name="Path 4867" d="M5.689,4.579a.268.268,0,1,1-.267.267.267.267,0,0,1,.267-.267" fill="#000023"/>
      <path id="Path_4868" data-name="Path 4868" d="M6.554,3.835a.268.268,0,1,1-.267.267.267.267,0,0,1,.267-.267" fill="#000023"/>
      <path id="Path_4869" data-name="Path 4869" d="M6.682,4.918a.259.259,0,1,1-.259.259.259.259,0,0,1,.259-.259" fill="#000023"/>
      <path id="Path_4870" data-name="Path 4870" d="M7.667,5.26a.243.243,0,1,1-.242.242.242.242,0,0,1,.242-.242" fill="#000023"/>
      <path id="Path_4871" data-name="Path 4871" d="M7.543,4.217a.259.259,0,1,1-.259.259.259.259,0,0,1,.259-.259" fill="#000023"/>
      <path id="Path_4872" data-name="Path 4872" d="M7.475,3.155a.267.267,0,1,1-.266.266.266.266,0,0,1,.266-.266" fill="#000023"/>
      <path id="Path_4873" data-name="Path 4873" d="M8.385,2.559a.268.268,0,1,1-.267.267.268.268,0,0,1,.267-.267" fill="#000023"/>
      <path id="Path_4874" data-name="Path 4874" d="M9.323,1.972a.268.268,0,1,1-.267.267.267.267,0,0,1,.267-.267" fill="#000023"/>
      <path id="Path_4875" data-name="Path 4875" d="M10.33,1.493a.267.267,0,1,1-.266.266.266.266,0,0,1,.266-.266" fill="#000023"/>
      <path id="Path_4876" data-name="Path 4876" d="M10.256,2.57A.258.258,0,1,1,10,2.828a.258.258,0,0,1,.258-.258" fill="#000023"/>
      <path id="Path_4877" data-name="Path 4877" d="M49.654,24.5a7.2,7.2,0,0,1-4.123-1.089,4.477,4.477,0,0,1-1.946-3.112l3.009-.778a3.2,3.2,0,0,0,.609,1.426,2.348,2.348,0,0,0,1.064.739,4.2,4.2,0,0,0,1.387.221,2.85,2.85,0,0,0,1.686-.4,1.2,1.2,0,0,0,.544-1,1.027,1.027,0,0,0-.518-.92,4.952,4.952,0,0,0-1.66-.532l-.726-.13a12.98,12.98,0,0,1-2.464-.713,4.477,4.477,0,0,1-1.789-1.258,3.114,3.114,0,0,1-.675-2.075,3.424,3.424,0,0,1,1.4-2.943,6.09,6.09,0,0,1,3.682-1.024,6.281,6.281,0,0,1,3.579.959,4.427,4.427,0,0,1,1.868,2.516l-3.035.933a2.089,2.089,0,0,0-.843-1.4,2.812,2.812,0,0,0-1.569-.415,2.6,2.6,0,0,0-1.426.324,1.017,1.017,0,0,0-.493.9.991.991,0,0,0,.519.921,4.363,4.363,0,0,0,1.4.453l.727.13a16.01,16.01,0,0,1,2.632.687,4.41,4.41,0,0,1,1.867,1.219,3.153,3.153,0,0,1,.687,2.14,3.68,3.68,0,0,1-1.465,3.125,6.383,6.383,0,0,1-3.929,1.1"/>
      <path id="Path_4878" data-name="Path 4878" d="M58.886,9.765A2.1,2.1,0,0,1,57.4,9.194a1.963,1.963,0,0,1-.609-1.5,1.964,1.964,0,0,1,.609-1.5,2.25,2.25,0,0,1,3,0,1.987,1.987,0,0,1,.6,1.5,1.986,1.986,0,0,1-.6,1.5,2.089,2.089,0,0,1-1.5.571m-1.633,1.5h3.268V24.132H57.253Z"/>
      <path id="Path_4879" data-name="Path 4879" d="M62.88,17.752v-.415a6.993,6.993,0,0,1,.8-3.462,5.651,5.651,0,0,1,2.14-2.2,5.777,5.777,0,0,1,2.917-.765,4.731,4.731,0,0,1,2.672.623,4.515,4.515,0,0,1,1.322,1.3H73.2V11.268h3.216V26.414a2.884,2.884,0,0,1-.778,2.114,2.782,2.782,0,0,1-2.075.791h-8.61V26.466h7.469q.726,0,.726-.778V22.342h-.467a4.154,4.154,0,0,1-.726.843,3.71,3.71,0,0,1-1.245.713,6.3,6.3,0,0,1-4.888-.479,5.644,5.644,0,0,1-2.14-2.2,6.994,6.994,0,0,1-.8-3.462m6.8,3.579A3.388,3.388,0,0,0,73.2,17.674v-.259a3.534,3.534,0,1,0-7.054,0v.259a3.388,3.388,0,0,0,3.527,3.657"/>
      <path id="Path_4880" data-name="Path 4880" d="M79.4,24.132V11.269h3.216v1.685h.467a3.391,3.391,0,0,1,1.167-1.283,4.486,4.486,0,0,1,2.593-.61,4.958,4.958,0,0,1,2.632.687,4.688,4.688,0,0,1,1.751,1.894,6.053,6.053,0,0,1,.622,2.813v7.677H88.581V16.715a3,3,0,0,0-.713-2.179,2.728,2.728,0,0,0-2.036-.726,2.865,2.865,0,0,0-2.334,1,4.235,4.235,0,0,0-.83,2.788v6.535Z"/>
      <path id="Path_4881" data-name="Path 4881" d="M98.72,24.5a6.047,6.047,0,0,1-2.463-.48,4,4,0,0,1-1.725-1.4,3.849,3.849,0,0,1-.635-2.243,3.732,3.732,0,0,1,.635-2.218A3.875,3.875,0,0,1,96.3,16.806a6.86,6.86,0,0,1,2.58-.454H102.4v-.726a2.045,2.045,0,0,0-.57-1.491,2.452,2.452,0,0,0-1.816-.584,2.575,2.575,0,0,0-1.815.558,2.638,2.638,0,0,0-.778,1.439l-3.009-1.011a5.239,5.239,0,0,1,1-1.8,4.957,4.957,0,0,1,1.841-1.323,7,7,0,0,1,2.814-.505,5.964,5.964,0,0,1,4.02,1.271,4.59,4.59,0,0,1,1.478,3.682v4.8q0,.779.726.778h1.038v2.7h-2.179a2.559,2.559,0,0,1-1.582-.467,1.477,1.477,0,0,1-.622-1.244V22.4h-.493a3.394,3.394,0,0,1-.467.817,3.037,3.037,0,0,1-1.141.894,4.809,4.809,0,0,1-2.127.389m.571-2.645a3.269,3.269,0,0,0,2.243-.765,2.58,2.58,0,0,0,.869-2.036V18.79H99.109a2.324,2.324,0,0,0-1.426.389,1.282,1.282,0,0,0-.519,1.089,1.4,1.4,0,0,0,.545,1.141,2.463,2.463,0,0,0,1.582.441"/>
      <rect id="Rectangle_535" data-name="Rectangle 535" width="3.268" height="18.154" transform="translate(109.068 5.978)"/>
      <path id="Path_4882" data-name="Path 4882" d="M120.246,24.132a2.785,2.785,0,0,1-2.062-.791,2.854,2.854,0,0,1-.791-2.114V13.966h-3.216v-2.7h3.216V7.275h3.267v3.994h3.528v2.7H120.66v6.691q0,.777.727.778h2.489v2.7Z"/>
      <path id="Path_4883" data-name="Path 4883" d="M126.5,24.132V11.269h3.216v1.452h.466a2.053,2.053,0,0,1,.947-1.141,3.156,3.156,0,0,1,1.543-.363h1.556v2.9h-1.608a3.114,3.114,0,0,0-2.048.662,2.483,2.483,0,0,0-.8,2.036v7.313Z"/>
      <path id="Path_4884" data-name="Path 4884" d="M139.8,24.5a6.047,6.047,0,0,1-2.463-.48,3.989,3.989,0,0,1-1.725-1.4,3.849,3.849,0,0,1-.635-2.243,3.732,3.732,0,0,1,.635-2.218,3.867,3.867,0,0,1,1.763-1.348,6.862,6.862,0,0,1,2.581-.454h3.527v-.726a2.042,2.042,0,0,0-.571-1.491,2.447,2.447,0,0,0-1.815-.584,2.579,2.579,0,0,0-1.816.558,2.645,2.645,0,0,0-.778,1.439l-3.008-1.011a5.237,5.237,0,0,1,1-1.8,4.953,4.953,0,0,1,1.842-1.323,7,7,0,0,1,2.814-.505,5.964,5.964,0,0,1,4.02,1.271,4.59,4.59,0,0,1,1.478,3.682v4.8q0,.779.726.778h1.038v2.7h-2.179a2.559,2.559,0,0,1-1.582-.467,1.478,1.478,0,0,1-.623-1.244V22.4h-.492a3.43,3.43,0,0,1-.467.817,3.045,3.045,0,0,1-1.141.894,4.809,4.809,0,0,1-2.127.389m.571-2.645a3.269,3.269,0,0,0,2.243-.765,2.58,2.58,0,0,0,.869-2.036V18.79h-3.294a2.324,2.324,0,0,0-1.426.389,1.282,1.282,0,0,0-.519,1.089,1.4,1.4,0,0,0,.545,1.141,2.462,2.462,0,0,0,1.582.441"/>
      <path id="Path_4885" data-name="Path 4885" d="M155.931,24.5a7.3,7.3,0,0,1-3.384-.778,5.851,5.851,0,0,1-2.4-2.256,6.867,6.867,0,0,1-.882-3.579v-.363a6.862,6.862,0,0,1,.882-3.579,5.838,5.838,0,0,1,2.4-2.256,7.3,7.3,0,0,1,3.384-.778,7.127,7.127,0,0,1,3.164.648,5.672,5.672,0,0,1,2.14,1.776,6.19,6.19,0,0,1,1.076,2.555l-3.164.674a3.726,3.726,0,0,0-.467-1.4,2.62,2.62,0,0,0-1.024-.986,3.389,3.389,0,0,0-1.647-.363,3.677,3.677,0,0,0-1.777.428,3.047,3.047,0,0,0-1.245,1.271,4.308,4.308,0,0,0-.453,2.062v.259a4.308,4.308,0,0,0,.453,2.062,3.053,3.053,0,0,0,1.245,1.271,3.676,3.676,0,0,0,1.777.427,3.036,3.036,0,0,0,2.243-.765,3.591,3.591,0,0,0,.973-2.01l3.164.753a7.129,7.129,0,0,1-1.154,2.5,5.674,5.674,0,0,1-2.14,1.777,7.127,7.127,0,0,1-3.164.648"/>
      <path id="Path_4886" data-name="Path 4886" d="M164.437,24.132V5.978h3.268V16.015h.467l4.253-4.746h4.253l-5.939,6.224,6.147,6.639h-4.2l-4.512-5.109h-.467v5.109Z"/>
      <path id="Path_4887" data-name="Path 4887" d="M183.4,24.5a7.208,7.208,0,0,1-4.124-1.089,4.479,4.479,0,0,1-1.945-3.112l3.009-.778a3.188,3.188,0,0,0,.609,1.426,2.339,2.339,0,0,0,1.063.739,4.209,4.209,0,0,0,1.388.221,2.854,2.854,0,0,0,1.686-.4,1.2,1.2,0,0,0,.544-1,1.027,1.027,0,0,0-.518-.92,4.96,4.96,0,0,0-1.66-.532l-.726-.13a12.959,12.959,0,0,1-2.464-.713,4.488,4.488,0,0,1-1.79-1.258,3.114,3.114,0,0,1-.674-2.075,3.426,3.426,0,0,1,1.4-2.943,6.1,6.1,0,0,1,3.683-1.024,6.281,6.281,0,0,1,3.579.959,4.421,4.421,0,0,1,1.867,2.516l-3.034.933a2.092,2.092,0,0,0-.843-1.4,2.815,2.815,0,0,0-1.569-.415,2.6,2.6,0,0,0-1.426.324,1.017,1.017,0,0,0-.493.9.991.991,0,0,0,.519.921,4.354,4.354,0,0,0,1.4.453l.726.13a16,16,0,0,1,2.633.687,4.41,4.41,0,0,1,1.867,1.219,3.153,3.153,0,0,1,.687,2.14,3.68,3.68,0,0,1-1.465,3.125,6.383,6.383,0,0,1-3.929,1.1"/>
    </g>
  </g>
</svg>
