<svg xmlns="http://www.w3.org/2000/svg" width="30.354" height="28.756" viewBox="0 0 30.354 28.756">
  <g id="logo" transform="translate(-322.814 -216.594)">
    <path id="Path_3896" data-name="Path 3896" d="M350.886,227.848q-2.673,0-5.346,0a2.01,2.01,0,0,1-1.726-.91,3.061,3.061,0,0,1-.43-2.1c.089-1.54-.605-2.638-2.294-2.611-1.781.028-3.563,0-5.345.006a2.18,2.18,0,0,1-2.109-2.07c.033-.448,0-.9.005-1.348a2.115,2.115,0,0,0-2.189-2.218c-1.073.058-2.151.012-3.226.012v.015c-1.2,0-2.408-.006-3.612,0a1.567,1.567,0,0,0-1.478.937,8.162,8.162,0,0,0-.177,3.87c0,.012.025.022.031.036a2.163,2.163,0,0,0,2.16,1.312c1.815,0,3.629.019,5.443-.007a2.127,2.127,0,0,1,1.937,1.6,9.968,9.968,0,0,1,.133,1.948,2.041,2.041,0,0,0,2.092,2.085c1.83-.041,3.661,0,5.491-.015a2.193,2.193,0,0,1,2.135,2.1,11.017,11.017,0,0,0,0,1.4,2.047,2.047,0,0,0,1.876,2.122c2.376,0,4.752-.016,7.128.007a1.982,1.982,0,0,0,1.765-1.776,19.43,19.43,0,0,1,.012-2.118A2.107,2.107,0,0,0,350.886,227.848Z" fill="#262b40"/>
    <path id="Path_3897" data-name="Path 3897" d="M341.6,236.349a1.942,1.942,0,0,0-1.822-1.78c-1.764-.007-3.528-.022-5.291.009a1.593,1.593,0,0,0-1.541.992,9.122,9.122,0,0,0-.262,1.954,2.05,2.05,0,0,0,2.207,2.221c.753-.024,1.507,0,2.261,0,.818,0,1.636.017,2.453,0a2.035,2.035,0,0,0,2-1.944C341.578,237.312,341.587,236.83,341.6,236.349Z" fill="#262b40"/>
    <path id="Path_3898" data-name="Path 3898" d="M329.572,228.94c-1.652,0-3.3.029-4.957,0a1.971,1.971,0,0,0-1.748,1.792,10.8,10.8,0,0,1-.006,1.347,1.939,1.939,0,0,0,1.909,1.933c.848-.038,1.7-.007,2.55-.007V234c.931,0,1.863.029,2.791-.017a1.719,1.719,0,0,0,.894-.353,2.66,2.66,0,0,0,.785-2.979C331.491,229.348,330.9,228.938,329.572,228.94Z" fill="#262b40"/>
    <path id="Path_3899" data-name="Path 3899" d="M328.167,241.294c-.561.018-1.123,0-1.685,0v0c-.594,0-1.188-.012-1.781.006a1.648,1.648,0,0,0-.643.133,2.041,2.041,0,0,0,.866,3.915c1.011-.02,2.022.011,3.033-.013a2.7,2.7,0,0,0,.917-.194,2.013,2.013,0,0,0,1.109-2.383A1.916,1.916,0,0,0,328.167,241.294Z" fill="#262b40"/>
  </g>
</svg>
