<svg xmlns="http://www.w3.org/2000/svg" xmlns:xlink="http://www.w3.org/1999/xlink" width="99.704" height="56.881" viewBox="0 0 99.704 56.881">
  <defs>
    <clipPath id="clip-path">
      <rect id="Rectangle_517" data-name="Rectangle 517" width="99.704" height="56.881" transform="translate(0 0)" fill="none"/>
    </clipPath>
  </defs>
  <g id="logo" transform="translate(0 0)">
    <g id="Group_3216" data-name="Group 3216" clip-path="url(#clip-path)">
      <path id="Path_3956" data-name="Path 3956" d="M4.167,53.569a4.942,4.942,0,0,1-2.831-.748A3.072,3.072,0,0,1,0,50.684l2.066-.534a2.186,2.186,0,0,0,.418.979,1.613,1.613,0,0,0,.73.508,2.89,2.89,0,0,0,.953.151,1.953,1.953,0,0,0,1.158-.276.824.824,0,0,0,.373-.685.7.7,0,0,0-.356-.632A3.4,3.4,0,0,0,4.2,49.829l-.5-.089a8.934,8.934,0,0,1-1.692-.489,3.084,3.084,0,0,1-1.228-.864,2.14,2.14,0,0,1-.463-1.425,2.352,2.352,0,0,1,.961-2.021,4.184,4.184,0,0,1,2.529-.7,4.31,4.31,0,0,1,2.457.659,3.037,3.037,0,0,1,1.283,1.727l-2.084.641a1.435,1.435,0,0,0-.579-.961,1.929,1.929,0,0,0-1.077-.285,1.793,1.793,0,0,0-.98.222.7.7,0,0,0-.338.615.682.682,0,0,0,.356.632,3.008,3.008,0,0,0,.962.311l.5.089a10.987,10.987,0,0,1,1.807.472A3.025,3.025,0,0,1,7.4,49.2a2.163,2.163,0,0,1,.472,1.469,2.528,2.528,0,0,1-1.006,2.146,4.381,4.381,0,0,1-2.7.757"/>
      <path id="Path_3957" data-name="Path 3957" d="M10.506,43.454a1.439,1.439,0,0,1-1.024-.392,1.484,1.484,0,0,1,0-2.065,1.545,1.545,0,0,1,2.057,0,1.505,1.505,0,0,1,0,2.065,1.431,1.431,0,0,1-1.033.392M9.384,44.487h2.244V53.32H9.384Z"/>
      <path id="Path_3958" data-name="Path 3958" d="M13.248,48.939v-.284a4.808,4.808,0,0,1,.552-2.378,3.872,3.872,0,0,1,1.47-1.513,3.962,3.962,0,0,1,2-.526,3.246,3.246,0,0,1,1.834.428,3.084,3.084,0,0,1,.908.89h.321V44.488h2.208v10.4a1.982,1.982,0,0,1-.534,1.452,1.908,1.908,0,0,1-1.425.543H14.673V54.923H19.8q.5,0,.5-.534v-2.3h-.32a2.836,2.836,0,0,1-.5.579,2.561,2.561,0,0,1-.855.49,4.323,4.323,0,0,1-3.356-.33,3.872,3.872,0,0,1-1.47-1.513,4.805,4.805,0,0,1-.552-2.378M17.914,51.4a2.327,2.327,0,0,0,2.422-2.511v-.178a2.427,2.427,0,1,0-4.844,0v.178A2.327,2.327,0,0,0,17.914,51.4"/>
      <path id="Path_3959" data-name="Path 3959" d="M24.592,53.32V44.487H26.8v1.158h.321a2.325,2.325,0,0,1,.8-.882,3.088,3.088,0,0,1,1.781-.418,3.4,3.4,0,0,1,1.807.472,3.217,3.217,0,0,1,1.2,1.3,4.156,4.156,0,0,1,.428,1.932V53.32H30.9V48.227a2.053,2.053,0,0,0-.49-1.5,1.871,1.871,0,0,0-1.4-.5,1.966,1.966,0,0,0-1.6.685,2.9,2.9,0,0,0-.57,1.914V53.32Z"/>
      <path id="Path_3960" data-name="Path 3960" d="M37.858,53.569a4.161,4.161,0,0,1-1.691-.329,2.75,2.75,0,0,1-1.185-.962,2.643,2.643,0,0,1-.436-1.54,2.565,2.565,0,0,1,.436-1.523,2.668,2.668,0,0,1,1.211-.926,4.735,4.735,0,0,1,1.772-.311h2.422v-.5a1.405,1.405,0,0,0-.392-1.024,1.682,1.682,0,0,0-1.246-.4,1.773,1.773,0,0,0-1.247.382,1.816,1.816,0,0,0-.534.989L34.9,46.731a3.587,3.587,0,0,1,.686-1.237,3.4,3.4,0,0,1,1.264-.909,4.812,4.812,0,0,1,1.932-.347,4.089,4.089,0,0,1,2.76.873,3.15,3.15,0,0,1,1.016,2.528v3.295q0,.534.5.534h.712V53.32H42.275A1.766,1.766,0,0,1,41.188,53a1.016,1.016,0,0,1-.427-.855v-.018h-.338a2.363,2.363,0,0,1-.321.561,2.087,2.087,0,0,1-.784.614,3.307,3.307,0,0,1-1.46.267m.392-1.816a2.246,2.246,0,0,0,1.54-.525,1.77,1.77,0,0,0,.6-1.4v-.178H38.125a1.6,1.6,0,0,0-.979.267.879.879,0,0,0-.356.748.958.958,0,0,0,.374.783,1.689,1.689,0,0,0,1.086.3"/>
      <rect id="Rectangle_516" data-name="Rectangle 516" width="2.244" height="12.465" transform="translate(44.963 40.854)"/>
      <path id="Path_3961" data-name="Path 3961" d="M52.639,53.32a1.916,1.916,0,0,1-1.417-.543,1.965,1.965,0,0,1-.542-1.451V46.339H48.472V44.487H50.68V41.745h2.244v2.742h2.421v1.852H52.924v4.595q0,.534.5.534h1.71V53.32Z"/>
      <path id="Path_3962" data-name="Path 3962" d="M56.93,53.32V44.487h2.208v1h.321a1.406,1.406,0,0,1,.65-.784,2.169,2.169,0,0,1,1.059-.249h1.069v1.994h-1.1a2.146,2.146,0,0,0-1.407.454,1.706,1.706,0,0,0-.552,1.4V53.32Z"/>
      <path id="Path_3963" data-name="Path 3963" d="M66.065,53.569a4.17,4.17,0,0,1-1.692-.329,2.753,2.753,0,0,1-1.184-.962,2.643,2.643,0,0,1-.436-1.54,2.565,2.565,0,0,1,.436-1.523,2.668,2.668,0,0,1,1.211-.926,4.731,4.731,0,0,1,1.772-.311h2.422v-.5a1.405,1.405,0,0,0-.392-1.024,1.682,1.682,0,0,0-1.246-.4,1.771,1.771,0,0,0-1.247.382,1.816,1.816,0,0,0-.534.989l-2.066-.695a3.584,3.584,0,0,1,.685-1.237,3.414,3.414,0,0,1,1.265-.909,4.812,4.812,0,0,1,1.932-.347,4.093,4.093,0,0,1,2.76.873,3.15,3.15,0,0,1,1.015,2.528v3.295c0,.356.167.534.5.534h.712V53.32h-1.5A1.765,1.765,0,0,1,69.395,53a1.016,1.016,0,0,1-.427-.855v-.018H68.63a2.363,2.363,0,0,1-.321.561,2.1,2.1,0,0,1-.784.614,3.307,3.307,0,0,1-1.46.267m.392-1.816A2.246,2.246,0,0,0,68,51.228a1.77,1.77,0,0,0,.6-1.4v-.178H66.332a1.6,1.6,0,0,0-.979.267.879.879,0,0,0-.356.748.958.958,0,0,0,.374.783,1.689,1.689,0,0,0,1.086.3"/>
      <path id="Path_3964" data-name="Path 3964" d="M77.141,53.569a5.021,5.021,0,0,1-2.324-.534,4.021,4.021,0,0,1-1.647-1.549,4.713,4.713,0,0,1-.606-2.458v-.249a4.713,4.713,0,0,1,.606-2.458,4.021,4.021,0,0,1,1.647-1.549,5.021,5.021,0,0,1,2.324-.534,4.892,4.892,0,0,1,2.173.445,3.9,3.9,0,0,1,1.469,1.22,4.244,4.244,0,0,1,.739,1.754l-2.173.463a2.556,2.556,0,0,0-.32-.962,1.8,1.8,0,0,0-.7-.676,2.323,2.323,0,0,0-1.13-.25,2.519,2.519,0,0,0-1.22.294,2.082,2.082,0,0,0-.855.873,2.95,2.95,0,0,0-.312,1.415v.179a2.945,2.945,0,0,0,.312,1.415,2.082,2.082,0,0,0,.855.873,2.519,2.519,0,0,0,1.22.294,2.085,2.085,0,0,0,1.54-.526,2.465,2.465,0,0,0,.668-1.38l2.172.517a4.874,4.874,0,0,1-.792,1.718,3.9,3.9,0,0,1-1.469,1.22,4.906,4.906,0,0,1-2.173.445"/>
      <path id="Path_3965" data-name="Path 3965" d="M82.982,53.32V40.855h2.244v6.891h.32l2.921-3.259h2.92L87.31,48.761l4.22,4.559H88.645l-3.1-3.508h-.32V53.32Z"/>
      <path id="Path_3966" data-name="Path 3966" d="M96,53.569a4.94,4.94,0,0,1-2.831-.748,3.072,3.072,0,0,1-1.336-2.137L93.9,50.15a2.186,2.186,0,0,0,.418.979,1.613,1.613,0,0,0,.73.508,2.886,2.886,0,0,0,.953.151,1.948,1.948,0,0,0,1.157-.276.823.823,0,0,0,.374-.685.7.7,0,0,0-.356-.632,3.4,3.4,0,0,0-1.14-.366l-.5-.089a8.891,8.891,0,0,1-1.692-.489,3.094,3.094,0,0,1-1.229-.864,2.14,2.14,0,0,1-.463-1.425,2.353,2.353,0,0,1,.962-2.021,4.184,4.184,0,0,1,2.529-.7A4.31,4.31,0,0,1,98.1,44.9a3.036,3.036,0,0,1,1.282,1.727l-2.083.641a1.435,1.435,0,0,0-.579-.961,1.929,1.929,0,0,0-1.077-.285,1.791,1.791,0,0,0-.98.222.7.7,0,0,0-.338.615.682.682,0,0,0,.356.632,3,3,0,0,0,.962.311l.5.089a10.974,10.974,0,0,1,1.808.472,3.025,3.025,0,0,1,1.282.837,2.168,2.168,0,0,1,.472,1.469A2.528,2.528,0,0,1,98.7,52.812a4.381,4.381,0,0,1-2.7.757"/>
      <path id="Path_3967" data-name="Path 3967" d="M60.083,27.227h0l-.223-.147-.008.013-1.347-.783-.225-.143c-2.978,4.68-7.115,7.053-12.3,7.055h-.005c-5.216,0-9.365-2.377-12.328-7.063a.267.267,0,0,0-.359-.089l-1.544.89a.264.264,0,0,0-.094.37,16.024,16.024,0,0,0,12.014,8.05,19.921,19.921,0,0,0,2.512.163c5.8,0,10.542-2.74,14.126-8.169Z" fill="#0061ff"/>
      <path id="Path_3968" data-name="Path 3968" d="M45.974,31.963h.037c4.689-.011,8.437-2.156,11.139-6.374a.266.266,0,0,0-.051-.346c-.029-.025-.052-.047-.072-.065a.848.848,0,0,0-.143-.113c-.343-.2-.686-.4-1.037-.6l-.317-.183a.267.267,0,0,0-.358.087,10.469,10.469,0,0,1-9.19,5.266h0a10.447,10.447,0,0,1-9.217-5.272.268.268,0,0,0-.359-.088l-1.554.9a.269.269,0,0,0-.126.167.265.265,0,0,0,.035.207c2.716,4.258,6.49,6.417,11.218,6.417" fill="#0061ff"/>
      <path id="Path_3969" data-name="Path 3969" d="M37.268,22.612a.277.277,0,0,0,.1-.018l1.576-.613a.267.267,0,0,0,.157-.333c-1.756-5.278-1-9.993,2.234-14.012,3.263-4.048,7.7-5.791,13.192-5.181a.266.266,0,0,0,.293-.224l.265-1.7a.268.268,0,0,0-.216-.3,15.967,15.967,0,0,0-8.409.866A16.486,16.486,0,0,0,35.906,15.163a14.944,14.944,0,0,0,1.119,7.292.266.266,0,0,0,.243.157" fill="#0061ff"/>
      <path id="Path_3970" data-name="Path 3970" d="M51.584,5.954a14.282,14.282,0,0,1,1.642.01c.232.01.469.021.7.026a.266.266,0,0,0,.237-.047l.012-.008a.271.271,0,0,0,.1-.238l.251-1.609a.268.268,0,0,0-.21-.3,12.1,12.1,0,0,0-6.159.5,12.957,12.957,0,0,0-6.186,4.528,12.727,12.727,0,0,0-1.6,12.357.268.268,0,0,0,.241.152.273.273,0,0,0,.1-.018l1.6-.625a.267.267,0,0,0,.157-.331l-.051-.159c-.029-.091-.053-.167-.079-.243a10.582,10.582,0,0,1,9.244-13.99" fill="#0061ff"/>
      <path id="Path_3971" data-name="Path 3971" d="M65.264,14.729a16.48,16.48,0,0,0-6.552-5.647A14.952,14.952,0,0,0,51.5,7.524a.267.267,0,0,0-.25.268l.009,1.691a.268.268,0,0,0,.255.266c5.558.244,9.693,2.629,12.291,7.089,2.617,4.493,2.661,9.261.13,14.172a.268.268,0,0,0,.1.354l1.5.855a.268.268,0,0,0,.361-.093,15.961,15.961,0,0,0,2.193-8.164,16.564,16.564,0,0,0-2.825-9.233" fill="#0061ff"/>
      <path id="Path_3972" data-name="Path 3972" d="M62.478,17.019a12.724,12.724,0,0,0-10.97-5.909.267.267,0,0,0-.246.268l.011,1.721a.268.268,0,0,0,.253.265l.165.008c.1.006.177.01.257.013a10.582,10.582,0,0,1,9.768,13.63,14.215,14.215,0,0,1-.6,1.529c-.092.212-.187.431-.277.65a.293.293,0,0,0-.043.091.257.257,0,0,0,.005.153l0,.007a.266.266,0,0,0,.186.179l1.414.809a.261.261,0,0,0,.132.035.268.268,0,0,0,.225-.123A12.1,12.1,0,0,0,64.5,24.414a12.961,12.961,0,0,0-2.021-7.4" fill="#0061ff"/>
    </g>
  </g>
</svg>
